<svg xmlns="http://www.w3.org/2000/svg" width="32" height="34">
    <path fill="#FA6E31" fillRule="evenodd" d="M31.262 30.472h-3.679V32.7c0 .41-.329.742-.737.742-.406 0-.735-.332-.735-.742v-2.228h-2.209c-.407 0-.735-.333-.735-.743s.328-.743.735-.743h2.209v-3.713c0-.41.329-.743.735-.743.408 0 .737.333.737.743v3.713h3.679c.407 0 .736.333.736.743s-.329.743-.736.743zM23.568 15.83c-.258 4.401-3.333 9.058-7.661 9.058-1.069 0-2.089-.285-3.028-.771l-1.964 3.047c-.136.21-.369.337-.617.337H8.09c-3.298 0-6.626 1.778-6.626 5.749 0 .411-.328.743-.736.743-.407 0-.735-.332-.735-.743 0-4.259 3.329-7.234 8.097-7.234h1.808l1.741-2.698c-2.281-1.755-3.863-4.712-4.081-7.445-.99-.271-2.057-1.054-2.057-2.126v-2.97c0-.928.892-1.599 1.474-1.938V6.32c0-2.815 2.23-5.116 5.001-5.196.591-.24 2.922-1.117 5.302-1.117 3.798 0 5.889 2.242 5.889 6.313v2.294c1.471.29 1.471 1.482 1.471 2.163v2.97c0 1.32-.557 1.863-1.07 2.083zm-.401-5.053c0-.743 0-.743-.737-.743-.407 0-.736-.333-.736-.743V6.32c0-3.249-1.445-4.827-4.416-4.827-2.397 0-4.839 1.043-4.863 1.054-.09.039-.188.06-.289.06-2.029 0-3.68 1.666-3.68 3.713v2.971c0 .293-.169.558-.435.678-.522.239-1.036.647-1.036.814v2.964c0 .246.711.743 1.292.743.408 0 .737.332.737.743 0 3.677 3.185 8.17 6.903 8.17 3.552 0 6.206-4.314 6.206-8.17 0-.411.328-.743.735-.743.128 0 .319 0 .319-.743v-2.97z"/>
</svg>
