<svg xmlns="http://www.w3.org/2000/svg" width="24" height="24" viewBox="0 0 24 24">
    <g fill="none" fill-rule="evenodd">
        <g>
            <g>
                <g>
                    <path d="M0 0L24 0 24 24 0 24z" transform="translate(-40.000000, -175.000000) translate(24.000000, 159.000000) translate(16.000000, 16.000000)"/>
                    <g fill="#A4A5A6" fill-rule="nonzero" stroke="#A4A5A6" stroke-width=".1">
                        <path d="M18.242 2.383c-.97 0-1.758.788-1.758 1.758v.686c-.183-.065-.38-.1-.586-.1-.969 0-1.757.788-1.757 1.757V6.7c-.254-.312-.543-.597-.864-.847-.39-.302-.818-.548-1.271-.732.636-.578.963-1.354.963-2.151C12.969 1.349 11.619 0 10 0 8.38 0 7.031 1.35 7.031 2.969c0 .797.327 1.572.963 2.151-.453.184-.882.43-1.27.732-.322.25-.611.535-.865.847v-.215c0-.969-.788-1.757-1.757-1.757-.206 0-.403.035-.586.1v-.686c0-.97-.789-1.758-1.758-1.758C.788 2.383 0 3.17 0 4.14v6.382c0 .53.144 1.052.417 1.507l2.848 4.746c.164.273.25.586.25.904v1.734c0 .324.263.586.587.586h11.796c.324 0 .586-.262.586-.586V17.68c0-.318.087-.63.25-.904l2.848-4.746c.274-.455.418-.976.418-1.507V4.14c0-.97-.789-1.758-1.758-1.758zm-2.93 4.101c0-.323.263-.586.586-.586.324 0 .586.263.586.586v2.344c0 .156-.06.304-.171.414h0c-.084-.175-.198-.34-.344-.485-.191-.192-.416-.33-.656-.414V6.484zM10 1.172c.974 0 1.797.823 1.797 1.797 0 .953-.823 1.758-1.797 1.758s-1.797-.805-1.797-1.758c0-.974.823-1.797 1.797-1.797zM3.516 6.484c0-.323.262-.586.586-.586.323 0 .585.263.585.586v1.858c-.244.086-.468.226-.656.415-.146.145-.26.31-.344.485-.11-.11-.171-.258-.171-.414V6.484zm5.898 12.344H4.688V17.68c0-.53-.145-1.052-.418-1.507l-2.848-4.746c-.164-.273-.25-.586-.25-.904V4.14c0-.323.263-.586.586-.586.323 0 .586.263.586.586v4.69c0 .468.183.909.515 1.24l3.172 3.172c.229.23.6.23.829 0 .228-.228.228-.6 0-.828l-2-2c-.23-.23-.23-.6 0-.83.225-.225.594-.233.83.003l3.21 3.17c.331.332.514.774.514 1.243v4.827zM10 12.243c-.083-.11-.175-.216-.275-.316l-3.209-3.17c-.11-.11-.232-.203-.363-.28.618-1.52 2.159-2.579 3.847-2.579 1.688 0 3.229 1.058 3.847 2.58-.13.074-.25.166-.36.277l-3.215 3.175c-.099.099-.19.204-.272.313zm8.578-.816l-2.848 4.746c-.273.455-.418.977-.418 1.507v1.148h-4.726v-4.827c0-.47.183-.91.512-1.24l3.214-3.175c.229-.229.6-.229.829 0 .23.23.227.6 0 .828l-2 2c-.23.23-.23.6 0 .83.228.228.6.228.828 0l3.172-3.173c.332-.331.514-.772.515-1.24v-.003-4.687c0-.323.263-.586.586-.586.323 0 .586.263.586.586v6.382h0c0 .318-.086.63-.25.904z" transform="translate(-40.000000, -175.000000) translate(24.000000, 159.000000) translate(16.000000, 16.000000) translate(2.000000, 2.000000)"/>
                    </g>
                </g>
            </g>
        </g>
    </g>
</svg>
