<svg xmlns="http://www.w3.org/2000/svg" width="23" height="32">
    <path fill="#4C4C4C" fillRule="evenodd" d="M6.896 5.647H16.1c.288 0 .521.234.521.522 0 .287-.233.521-.521.521H6.896c-.286 0-.519-.234-.519-.521 0-.288.233-.522.519-.522zM4.393 9.281h14.211c.287 0 .52.233.52.521 0 .288-.233.521-.52.521H4.393c-.286 0-.52-.233-.52-.521 0-.288.234-.521.52-.521zm9.134 18.696c-1.084.003-2.17.005-3.257.006-.761.001-1.576.051-2.124-.582-.16.177-.343.328-.54.435-1.052.573-1.79-.399-2.148-1.258-.192.657-.45 1.293-.707 1.926-.251.614-1.259.346-1.006-.277.292-.714.584-1.433.78-2.18.19-.725.26-1.46.28-2.208.016-.567.917-.734 1.024-.138.146.811.23 1.663.564 2.425.335.764.93 1.209 1.291.073.146-.459.896-.531 1.005 0 .127.628.512.743 1.082.743l.945-.002c.937-.001 1.875-.003 2.811-.006.672-.001.67 1.041 0 1.043zm5.077-14.02H4.393c-.286 0-.52-.233-.52-.521 0-.288.234-.521.52-.521h14.211c.287 0 .52.233.52.521 0 .288-.233.521-.52.521zm0 3.633H4.393c-.286 0-.52-.233-.52-.521 0-.288.234-.521.52-.521h14.211c.287 0 .52.233.52.521 0 .288-.233.521-.52.521zm4.241 8.726l-2.206 2.197-.903.984c-.026-.002-.05-.006-.074-.011l-2.372 2.362c-.096.096-.231.152-.366.152H1.215c-.671 0-1.216-.546-1.216-1.216V1.216C-.001.545.544 0 1.215 0h12.376c.673 0 .673 1.042 0 1.042H1.215c-.097 0-.174.078-.174.174v29.568c0 .095.077.173.174.173h15.187v-4.36c0-.671.546-1.217 1.216-1.217h4.338V1.216c0-.096-.077-.174-.174-.174h-5.417c-.674 0-.674-1.042 0-1.042h5.417c.671 0 1.216.545 1.216 1.216v24.731c0 .138-.055.271-.153.369zm-5.227.107c-.096 0-.174.078-.174.174v3.62l3.78-3.794h-3.606z"/>
</svg>
