<svg xmlns="http://www.w3.org/2000/svg" width="64" height="53.981" viewBox="0 0 64 53.981">
    <path fill="#639" d="M1498.372 1281.208c-2.531-1.181-5.123-2.386-6.374-2.531v2.091a1.326 1.326 0 0 1-1.333 1.318h-13.333a1.326 1.326 0 0 1-1.334-1.318v-23.725a1.326 1.326 0 0 1 1.334-1.319h13.333a1.327 1.327 0 0 1 1.333 1.319v4.118a1.614 1.614 0 0 1 .273-.06c8.251.115 12.381 2.735 15.114 4.469a6.613 6.613 0 0 0 2.7 1.3c.36 0 .81-.017 1.32-.035 3.3-.115 8.273-.3 10.522 2.265a4.3 4.3 0 0 1 1.068 2.632c1.777-.3 4.06-2.149 5.961-3.685 2.181-1.761 3.9-3.155 5.546-3.155 2.864 0 4.77 1.3 5.5 3.628v3.626c-2.611 5.652-20.236 13.835-26.83 13.835-4.58-.001-10.247-2.646-14.8-4.773zm-6.374-5.177c1.735.1 4.295 1.292 7.511 2.794 4.313 2.013 9.68 4.52 13.659 4.52 7.855 0 24.5-9.812 24.5-12.523 0-2.278-.977-3.295-3.166-3.295-.692 0-2.521 1.479-3.856 2.56-2.927 2.364-6.236 5.031-9.427 4.145-.041-.013-.072-.04-.111-.055h-18.134a1.318 1.318 0 1 1 0-2.636h17.3a1.651 1.651 0 0 0-.362-.715c-1.412-1.611-5.964-1.447-8.409-1.359-.549.021-1.031.038-1.418.038-1.439 0-2.632-.757-4.14-1.714-2.626-1.668-6.224-3.949-13.712-4.053a1.375 1.375 0 0 1-.235-.049zm-13.333 3.418h10.666v-21.089h-10.666zm38.974-18.449a3.954 3.954 0 1 1 0-7.908h8a3.954 3.954 0 1 1 0 7.908zm-1.332-3.954a1.326 1.326 0 0 0 1.332 1.318h8a1.319 1.319 0 1 0 0-2.637h-8a1.326 1.326 0 0 0-1.332 1.317zm-12-6.592a3.954 3.954 0 1 1 0-7.908h8a3.954 3.954 0 1 1 0 7.908zm-1.333-3.954a1.326 1.326 0 0 0 1.333 1.318h8a1.318 1.318 0 1 0 0-2.635h-8a1.326 1.326 0 0 0-1.333 1.317zm14.666-6.591a3.954 3.954 0 1 1 0-7.908h8a3.954 3.954 0 1 1 0 7.908zm-1.332-3.955a1.327 1.327 0 0 0 1.332 1.319h8a1.319 1.319 0 1 0 0-2.637h-8a1.326 1.326 0 0 0-1.333 1.317z" opacity="0.102" transform="translate(-1475.999 -1231.999)"/>
</svg>
