<svg xmlns="http://www.w3.org/2000/svg" width="38.002" height="58" viewBox="0 0 38.002 58">
    <g>
        <path fill="#efeaf5" d="M2050 1290v-50.75h7.126v-1.982c0-1.732 1.518-2.852 3.869-2.852h4.986c.355-2.208 1.752-2.417 3.18-2.417h.3c1.878 0 2.69.615 2.906 2.417h4.962c2.617 0 3.551 1.474 3.551 2.852v1.982h7.12V1290zm2.376-2.417h33.25v-45.917h-33.25zm26.125-48.333v-1.982c0-.379-.736-.436-1.176-.436h-7.137v-1.208a4.672 4.672 0 0 0-.146-1.2c-.144-.009-.413-.009-.586-.009h-.3a7.136 7.136 0 0 0-1.024.042 1.79 1.79 0 0 0-.324 1.166v1.208h-6.817c-.9 0-1.495.264-1.495.436v1.982zm-21.375 43.5v-29.832l8.284-6.418h15.466v36.25zm2.374-28.634v26.217h19v-31.416h-11.875v7.25h-7.125zm4.75-.365v-3.315l-4.279 3.315zm0 21.75v-2.42h9.5v2.42zm0-7.25v-2.42h9.5v2.42zm0-7.25v-2.42h9.5V1261z" transform="translate(-2049.998 -1231.999)"/>
    </g>
</svg>
