<svg xmlns="http://www.w3.org/2000/svg" width="60.979" height="63.975" viewBox="0 0 60.979 63.975">
    <g>
        <path fill="#639" d="M1194.019 1289.588c0-8.018 6.343-13.617 15.427-13.617h3.446l3.307-5.064a20.61 20.61 0 0 1-7.767-14.03c-1.885-.509-3.917-1.984-3.917-4v-5.592c0-1.747 1.7-3.009 2.806-3.647v-4.738a9.811 9.811 0 0 1 9.528-9.781 29.737 29.737 0 0 1 10.1-2.1c7.235 0 11.219 4.22 11.219 11.884v4.317c2.8.546 2.8 2.791 2.8 4.072v5.592c0 2.485-1.064 3.506-2.041 3.921-.492 8.284-6.348 17.049-14.594 17.049a12.637 12.637 0 0 1-5.772-1.443l-3.74 5.728a1.4 1.4 0 0 1-1.175.635h-4.206c-6.283 0-12.623 3.345-12.623 10.821a1.4 1.4 0 0 1-2.8 0zm23.67-57.794a1.426 1.426 0 0 1-.553.112 7.009 7.009 0 0 0-7.011 6.99v5.593a1.394 1.394 0 0 1-.83 1.275c-.994.451-1.974 1.219-1.974 1.533v5.58c0 .463 1.354 1.4 2.463 1.4a1.4 1.4 0 0 1 1.4 1.4c0 6.922 6.07 15.379 13.152 15.379 6.769 0 11.824-8.121 11.824-15.379a1.4 1.4 0 0 1 1.4-1.4c.241 0 .606 0 .606-1.4v-5.592c0-1.4 0-1.4-1.4-1.4a1.4 1.4 0 0 1-1.4-1.4v-5.585c0-6.115-2.753-9.087-8.414-9.087a27.391 27.391 0 0 0-9.263 1.981zm26.09 56.758v-4.193h-4.207a1.4 1.4 0 1 1 0-2.8h4.207v-6.989a1.4 1.4 0 0 1 2.806 0v6.989h7.011a1.4 1.4 0 1 1 0 2.8h-7.011v4.193a1.4 1.4 0 0 1-2.806 0z" opacity="0.102" transform="translate(-1194.019 -1227.013)"/>
    </g>
</svg>
