<svg xmlns="http://www.w3.org/2000/svg" width="32" height="32">
    <path fill="#FA6E31" fillRule="evenodd" d="M2.665 30.666v1.333H1.331v-1.333H-.001v-1.333h1.332V0h1.334v29.333h29.333v1.333H2.665zm26.001-2.667h-2.667c-.368 0-.668-.298-.668-.666V13.999c0-.367.3-.666.668-.666h2.667c.368 0 .666.299.666.666v13.334c0 .368-.298.666-.666.666zm-.668-13.333h-1.334v12.001h1.334V14.666zm-5.999 5.333c.368 0 .666.299.666.667v6.667c0 .368-.298.666-.666.666h-2.668c-.367 0-.666-.298-.666-.666v-6.667c0-.368.299-.667.666-.667h2.668zm-2.001 6.668h1.334v-5.334h-1.334v5.334zm-4.666-12.001c.367 0 .666.299.666.667v12c0 .368-.299.666-.666.666h-2.667c-.369 0-.666-.298-.666-.666v-12c0-.368.297-.667.666-.667h2.667zm-2.001 12.001h1.333V15.999h-1.333v10.668zm-7.333-6.668h2.667c.368 0 .667.299.667.667v6.667c0 .368-.299.666-.667.666H5.998c-.368 0-.666-.298-.666-.666v-6.667c0-.368.298-.667.666-.667zm.667 6.668h1.333v-5.334H6.665v5.334zm13.877-10.131c-.125.127-.337.219-.473.198-.176 0-.347-.071-.472-.196l-4.844-4.857-8.864 7.492c-.125.106-.278.157-.43.157-.189 0-.378-.079-.509-.236-.238-.281-.202-.701.078-.939l9.333-7.889c.262-.224.656-.209.901.038l4.807 4.818 7.639-7.706c.259-.262.682-.263.942-.004.263.259.264.681.005.943l-8.113 8.181z"/>
</svg>
