<svg xmlns="http://www.w3.org/2000/svg" width="58" height="50" viewBox="0 0 58 50">
    <path fill="#efeaf5" d="M1770.271 1280a3.88 3.88 0 0 1-3.955-3.947v-17.105a1.318 1.318 0 0 1 2.636 0v17.105a1.245 1.245 0 0 0 1.318 1.316h47.454a1.245 1.245 0 0 0 1.318-1.316v-17.105a1.318 1.318 0 0 1 2.636 0v17.105a3.88 3.88 0 0 1-3.955 3.947zm19.773-14.474a1.244 1.244 0 0 1-1.318-1.316V1260l-20.7-4.605a3.951 3.951 0 0 1-3.031-3.816v-8.421a3.88 3.88 0 0 1 3.954-3.947h50.091a3.881 3.881 0 0 1 3.955 3.947v8.421a3.952 3.952 0 0 1-3.031 3.816l-20.7 4.605v4.21a1.244 1.244 0 0 1-1.317 1.316zm1.318-2.632h5.273v-5.263h-5.273zm6.593-7.895a1.244 1.244 0 0 1 1.317 1.316v1.053l20.037-4.474a1.281 1.281 0 0 0 1.055-1.316v-8.421a1.244 1.244 0 0 0-1.318-1.316h-50.091a1.245 1.245 0 0 0-1.318 1.316v8.421a1.282 1.282 0 0 0 1.055 1.316l20.038 4.474v-1.053a1.244 1.244 0 0 1 1.318-1.316zm3.953-19.737v-1.316a1.244 1.244 0 0 0-1.318-1.316h-13.18a1.244 1.244 0 0 0-1.319 1.316v1.316a1.318 1.318 0 0 1-2.637 0v-1.316a3.881 3.881 0 0 1 3.956-3.947h13.18a3.881 3.881 0 0 1 3.956 3.947v1.316a1.319 1.319 0 0 1-2.637 0z" transform="translate(-1764.999 -1229.999)"/>
</svg>
