<svg xmlns="http://www.w3.org/2000/svg" width="24" height="24" viewBox="0 0 24 24">
    <g fill="none" fill-rule="evenodd">
        <g>
            <g>
                <g>
                    <path d="M0 0L24 0 24 24 0 24z" transform="translate(-40.000000, -119.000000) translate(24.000000, 103.000000) translate(16.000000, 16.000000)"/>
                    <path fill="#7d7e82" fill-rule="nonzero" d="M19 21H5c-.552 0-1-.448-1-1v-9H1l10.327-9.388c.382-.347.964-.347 1.346 0L23 11h-3v9c0 .552-.448 1-1 1zM6 19h12V9.157l-6-5.454-6 5.454V19zm2-4h8v2H8v-2z" transform="translate(-40.000000, -119.000000) translate(24.000000, 103.000000) translate(16.000000, 16.000000)"/>
                </g>
            </g>
        </g>
    </g>
</svg>
