<svg xmlns="http://www.w3.org/2000/svg" width="21" height="32">
    <path fill="#4C4C4C" fillRule="evenodd" d="M-.001 32V4h3.937V2.907c0-.956.84-1.574 2.138-1.574H8.83C9.026.114 9.798 0 10.586 0h.165c1.037 0 1.487.339 1.606 1.333h2.742c1.446 0 1.962.813 1.962 1.574V4h3.937v28H-.001zm15.75-29.093c0-.21-.407-.241-.65-.241h-3.945V2c0-.376-.061-.568-.08-.662-.08-.005-.228-.005-.323-.005h-.165c-.156 0-.493 0-.565.023.011.009-.179.164-.179.644v.666H6.074c-.496 0-.826.145-.826.241V4h10.501V2.907zm3.937 2.426H1.311v25.333h18.375V5.333zM17.061 8v20H3.936V11.54L8.515 8h8.546zM5.248 26.666h10.501V9.333H9.186v4H5.248v13.333zM7.874 10.17L5.509 12h2.365v-1.83zm5.25 5.83h-5.25v-1.334h5.25V16zm0 4h-5.25v-1.334h5.25V20zm0 4h-5.25v-1.334h5.25V24z"/>
</svg>
