<svg xmlns="http://www.w3.org/2000/svg" width="24" height="24" viewBox="0 0 24 24">
    <g fill="none" fill-rule="evenodd">
        <g>
            <g>
                <g>
                    <path d="M0 0L24 0 24 24 0 24z" transform="translate(-40.000000, -455.000000) translate(24.000000, 439.000000) translate(16.000000, 16.000000)"/>
                    <path fill="#A4A5A6" fill-rule="nonzero" d="M10.69 18.218v-1.134c.607-.056 1.132-.224 1.575-.504.443-.28.78-.625 1.008-1.036.229-.41.343-.85.343-1.316 0-.616-.135-1.099-.406-1.449-.27-.35-.602-.607-.994-.77-.392-.163-.9-.32-1.526-.469V8.516c.327.084.588.24.784.469.196.229.308.488.336.777h1.708c-.065-.775-.348-1.384-.847-1.827-.5-.443-1.16-.702-1.981-.777V6.024h-.91v1.134c-.877.084-1.587.38-2.128.889-.541.509-.812 1.15-.812 1.925 0 .616.138 1.101.413 1.456.275.355.609.614 1.001.777.392.163.9.324 1.526.483v3.08c-.383-.065-.677-.217-.882-.455-.205-.238-.322-.539-.35-.903H6.84c0 .765.27 1.381.812 1.848.541.467 1.25.742 2.128.826v1.134h.91zm-.91-6.916c-.42-.13-.744-.303-.973-.518-.229-.215-.343-.513-.343-.896 0-.41.119-.737.357-.98s.558-.387.959-.434v2.828zm.91 4.466v-2.842c.42.13.744.301.973.511.229.21.343.502.343.875s-.117.693-.35.959c-.233.266-.555.432-.966.497z" transform="translate(-40.000000, -455.000000) translate(24.000000, 439.000000) translate(16.000000, 16.000000)"/>
                    <path fill="#A4A5A6" fill-rule="nonzero" d="M19 22H5c-1.657 0-3-1.343-3-3V3c0-.552.448-1 1-1h14c.552 0 1 .448 1 1v12h4v4c0 1.657-1.343 3-3 3zm-1-5v2c0 .552.448 1 1 1s1-.448 1-1v-2h-2zm-2 3V4H4v15c0 .552.448 1 1 1h11z" transform="translate(-40.000000, -455.000000) translate(24.000000, 439.000000) translate(16.000000, 16.000000)"/>
                </g>
            </g>
        </g>
    </g>
</svg>
