<svg width="147" height="40" viewBox="0 0 147 40" fill="none" xmlns="http://www.w3.org/2000/svg">
<path d="M55.2663 28.5767H59.5049L52.4771 10.2705H47.6096L40.5544 28.5767H44.8203L45.9689 25.4205H54.1213L55.2663 28.5767ZM50.0433 13.6463L53.0514 22.0447H47.0126L50.0433 13.6463Z" fill="#162637"></path>
<path d="M74.3149 28.5767H78.0612V10.2705H74.1747V22.127L65.7284 10.2705H61.7405V28.5767H65.6235V16.2811L74.3149 28.5767Z" fill="#162637"></path>
<path d="M82.2041 28.5767H89.396C95.1112 28.5767 99.0809 24.9539 99.0809 19.4373C99.0809 13.9208 95.1158 10.2705 89.396 10.2705H82.2041V28.5767ZM86.0872 25.146V13.7012H89.3914C90.1571 13.6438 90.9261 13.7529 91.6459 14.021C92.3657 14.2891 93.0195 14.71 93.5624 15.2548C94.1054 15.7997 94.5248 16.4557 94.7921 17.1781C95.0594 17.9005 95.1683 18.6723 95.1112 19.4408C95.1437 20.2015 95.0179 20.9607 94.7419 21.6699C94.4658 22.3791 94.0455 23.0228 93.5078 23.5599C92.97 24.097 92.3267 24.5158 91.6187 24.7895C90.9108 25.0631 90.1538 25.1858 89.396 25.1495L86.0872 25.146Z" fill="#162637"></path>
<path d="M101.192 26.6555C101.192 27.0952 101.322 27.525 101.565 27.8906C101.809 28.2561 102.155 28.5411 102.559 28.7093C102.964 28.8776 103.41 28.9216 103.839 28.8358C104.269 28.7501 104.664 28.5383 104.973 28.2274C105.283 27.9165 105.494 27.5204 105.58 27.0892C105.665 26.6579 105.621 26.2109 105.454 25.8047C105.286 25.3985 105.002 25.0513 104.638 24.807C104.273 24.5628 103.845 24.4324 103.407 24.4324C102.822 24.4392 102.262 24.6756 101.848 25.0911C101.434 25.5065 101.199 26.068 101.192 26.6555Z" fill="#162637"></path>
<path d="M117.952 28.9058C119.536 28.9608 121.104 28.568 122.477 27.7722C123.851 26.9764 124.973 25.8096 125.718 24.4048L122.382 22.7855C121.96 23.5958 121.322 24.2733 120.541 24.7431C119.759 25.2129 118.863 25.4568 117.952 25.4477C117.187 25.439 116.432 25.2745 115.732 24.9643C115.032 24.6541 114.402 24.2046 113.881 23.643C113.359 23.0814 112.956 22.4193 112.697 21.697C112.438 20.9746 112.327 20.207 112.372 19.4405C112.327 18.6735 112.437 17.9052 112.696 17.1822C112.956 16.4592 113.358 15.7967 113.881 15.2346C114.403 14.6726 115.033 14.2228 115.733 13.9126C116.434 13.6024 117.19 13.4382 117.955 13.4299C118.865 13.4266 119.759 13.6728 120.54 14.142C121.32 14.6112 121.958 15.2855 122.385 16.0922L125.721 14.4454C124.977 13.0418 123.854 11.8774 122.48 11.0861C121.106 10.2947 119.538 9.90846 117.955 9.9718C116.697 9.92467 115.443 10.1363 114.27 10.5937C113.096 11.0511 112.029 11.7445 111.132 12.6314C110.236 13.5183 109.529 14.5799 109.057 15.7509C108.584 16.9219 108.355 18.1775 108.384 19.4405C108.356 20.703 108.585 21.9579 109.058 23.1283C109.53 24.2986 110.236 25.3596 111.132 26.2461C112.028 27.1326 113.095 27.8258 114.268 28.2832C115.441 28.7406 116.694 28.9525 117.952 28.9058Z" fill="#162637"></path>
<path d="M127.701 19.4405C127.701 21.9773 128.705 24.4101 130.492 26.2039C132.279 27.9976 134.703 29.0053 137.231 29.0053C139.758 29.0053 142.182 27.9976 143.969 26.2039C145.756 24.4101 146.761 21.9773 146.761 19.4405C146.761 16.9038 145.756 14.4709 143.969 12.6772C142.182 10.8834 139.758 9.87573 137.231 9.87573C134.703 9.87573 132.279 10.8834 130.492 12.6772C128.705 14.4709 127.701 16.9038 127.701 19.4405ZM142.767 19.4405C142.767 22.8438 140.579 25.4511 137.216 25.4511C133.852 25.4511 131.692 22.8438 131.692 19.4405C131.692 16.0098 133.857 13.4299 137.216 13.4299C140.575 13.4299 142.767 16.0098 142.767 19.4405Z" fill="#162637"></path>
<path fillRule="evenodd" clipRule="evenodd" d="M20.1901 39.9998C14.8745 40.0206 9.76691 37.9285 5.98361 34.1809C2.20032 30.4332 0.0490446 25.3348 0 20C0.0337392 14.7037 2.15532 9.63629 5.90094 5.9055C9.70649 2.12817 14.8409 0.00665014 20.1931 1.56075e-05C25.5454 -0.00661892 30.685 2.10216 34.4998 5.87005L31.0201 9.31219C28.1163 6.48405 24.234 4.89463 20.1878 4.87743C16.1566 4.88375 12.2917 6.49129 9.43763 9.34878C8.01289 10.7295 6.87978 12.3841 6.10588 14.2139C5.33198 16.0436 4.93314 18.011 4.93314 19.9988C4.93314 21.9866 5.33198 23.954 6.10588 25.7838C6.87978 27.6135 8.01289 29.2681 9.43763 30.6489C12.2917 33.5064 16.1566 35.1139 20.1878 35.1202C24.234 35.103 28.1163 33.5136 31.0201 30.6855L34.4998 34.1287C30.6935 37.9115 25.5467 40.0231 20.1901 39.9998Z" fill="#F53D3E"></path>
<path fillRule="evenodd" clipRule="evenodd" d="M12.6556 27.6676C11.658 26.6803 10.8658 25.5038 10.325 24.2066C9.78431 22.9093 9.50586 21.5171 9.50586 20.1109C9.50586 18.7047 9.78431 17.3125 10.325 16.0153C10.8658 14.718 11.658 13.5415 12.6556 12.5542C14.1586 11.0409 16.0739 10.0072 18.1605 9.58332C20.2472 9.1594 22.4122 9.36411 24.3832 10.1717C26.3543 10.9793 28.0435 12.3537 29.2384 14.1222C30.4334 15.8907 31.0807 17.9742 31.0991 20.1109C31.0738 22.2444 30.4224 24.3232 29.2263 26.0871C28.0303 27.851 26.3426 29.2219 24.3744 30.0284C22.4062 30.8348 20.2447 31.0409 18.1604 30.6211C16.0761 30.2012 14.1614 29.1739 12.6556 27.6676ZM24.5566 24.3067C25.1091 23.7578 25.5477 23.1044 25.847 22.3843C26.1463 21.6642 26.3004 20.8917 26.3004 20.1115C26.3004 19.3313 26.1463 18.5588 25.847 17.8387C25.5477 17.1186 25.1091 16.4652 24.5566 15.9163C23.4174 14.7941 21.887 14.1623 20.2907 14.1552C18.7086 14.1589 17.1925 14.7922 16.075 15.9163C15.5158 16.4614 15.0713 17.1135 14.7677 17.8341C14.4642 18.5547 14.3078 19.3291 14.3078 20.1115C14.3078 20.8938 14.4642 21.6682 14.7677 22.3888C15.0713 23.1094 15.5158 23.7616 16.075 24.3067C17.1926 25.4306 18.7086 26.064 20.2907 26.0678C21.8865 26.0603 23.4165 25.4285 24.5555 24.3067H24.5566Z" fill="#00E2B6"></path>
</svg>