<svg xmlns="http://www.w3.org/2000/svg" width="48" height="48" viewBox="0 0 48 48">
    <g fill="none" fill-rule="evenodd">
        <g>
            <g>
                <path d="M0 0L48 0 48 48 0 48z" transform="translate(-1186.000000, -16.000000) translate(1186.000000, 16.000000)"/>
                <path fill="#6D5ED3" d="M24 48C10.745 48 0 37.255 0 24S10.745 0 24 0s24 10.745 24 24-10.745 24-24 24zm-3.307-32.604c-.294-.196-.673-.215-.985-.048-.312.166-.507.491-.508.845v15.614c0 .354.196.679.508.845.312.167.69.148.985-.048l11.71-7.805c.267-.178.428-.478.428-.799 0-.321-.161-.621-.429-.8L20.69 15.397h.003z" transform="translate(-1186.000000, -16.000000) translate(1186.000000, 16.000000)"/>
            </g>
        </g>
    </g>
</svg>
