<svg xmlns="http://www.w3.org/2000/svg" xmlns:xlink="http://www.w3.org/1999/xlink" width="48" height="48" viewBox="0 0 48 48">
    <defs>
        <path id="i6umeiilud" d="M13.92 22.365v.07c.019 1.458 1.246 2.555 3.68 3.29-2.933 2.134-5.867 3.84-8.8 3.84-2.933 0-5.867-1.706-8.8-3.84 2.418-.735 3.644-1.834 3.68-3.295-.001-.26-.003-.63-.004-1.325l-.001-.339c-.175.025-.16.01 0-.035-.005-1.827-.013-4.284-.024-6.78-2.293-2.973-1.45-6.458-.732-6.371.882.107 8.514-7.136 9.978-7.507C14.361-.297 18.08.9 18.72 4.24c.64 3.34.908 11.759-1.52 15.12-.69.956-1.779 1.33-3.264 1.122-.002.7-.006 1.092-.016 1.883z"/>
        <path id="l2vcbr3ang" d="M36 5.97c1.015 2.064 1.815 5.477 2.4 10.24H0c.585-4.763 1.385-8.177 2.4-10.24C3.415 3.904 6.887 1.915 12.816 0 14.53 3.521 23.937 3.521 25.579 0 31.511 1.915 34.985 3.905 36 5.97z"/>
        <linearGradient id="pzhumn6x4e" x1="50%" x2="50%" y1="0%" y2="100%">
            <stop offset="0%" stop-color="#FFD4B3"/>
            <stop offset="100%" stop-color="#FFDCC2"/>
        </linearGradient>
        <filter id="saxokbpg3c" width="133.3%" height="124.2%" x="-16.7%" y="-12.1%" filterUnits="objectBoundingBox">
            <feOffset dy="1" in="SourceAlpha" result="shadowOffsetOuter1"/>
            <feGaussianBlur in="shadowOffsetOuter1" result="shadowBlurOuter1" stdDeviation=".5"/>
            <feColorMatrix in="shadowBlurOuter1" result="shadowMatrixOuter1" values="0 0 0 0 0 0 0 0 0 0 0 0 0 0 0.145098039 0 0 0 0.04 0"/>
            <feMerge>
                <feMergeNode in="shadowMatrixOuter1"/>
                <feMergeNode in="SourceGraphic"/>
            </feMerge>
        </filter>
        <circle id="q92u4hmhoa" cx="24" cy="24" r="24"/>
    </defs>
    <g fill="none" fill-rule="evenodd">
        <g>
            <g transform="translate(-1258.000000, -16.000000) translate(1258.000000, 16.000000)">
                <mask id="q7ohis6gmb" fill="#fff">
                    <use xlink:href="#q92u4hmhoa"/>
                </mask>
                <use fill="#FFF" fill-rule="nonzero" xlink:href="#q92u4hmhoa"/>
                <g mask="url(#q7ohis6gmb)">
                    <g>
                        <g filter="url(#saxokbpg3c)" transform="translate(9.540000, 5.280000) translate(12.060000, 16.500000) scale(-1, 1) translate(-12.060000, -16.500000) translate(0.060000, 0.000000)">
                            <g transform="translate(0.800000, 2.560000)">
                                <mask id="hjhdb5o81f" fill="#fff">
                                    <use xlink:href="#i6umeiilud"/>
                                </mask>
                                <use fill="url(#pzhumn6x4e)" xlink:href="#i6umeiilud"/>
                                <path fill="#FFBE94" fill-rule="nonzero" d="M13.92 20.48c-2.347-.267-4.267-.907-5.76-1.92 1.615 2.146 3.535 3.426 5.76 3.84v-1.92z" mask="url(#hjhdb5o81f)"/>
                            </g>
                            <path fill="#424242" d="M3.28 16.56C2.178 13.909-2.24 8.51 1.568 5.15 2.848-1.09 9.92-.4 14.64 1.04c3.172.968 5.568 2.88 6.08 1.44 3.2 2.67 1.597 5.28-.512 6.03-1.915.68-5.152 1.36-10.657.72-.983-.115-.777 2.897-1.303 3.222-.788.489-1.4-2.583-3.561-1.66-2.162.922-.88 5.198 1.44 5.198.8 0 1.2 2.2-.96 3.24-1.567.77-1.17-.947-1.887-2.67z"/>
                        </g>
                    </g>
                </g>
                <g mask="url(#q7ohis6gmb)">
                    <g transform="translate(4.800000, 32.480000)">
                        <use fill="#6D5ED3" xlink:href="#l2vcbr3ang"/>
                    </g>
                </g>
            </g>
        </g>
    </g>
</svg>
