<svg xmlns="http://www.w3.org/2000/svg" width="32" height="28">
    <path fill="#4C4C4C" fillRule="evenodd" d="M30.326 14.221L18.907 16.8v2.358c0 .442-.29.737-.727.737h-4.363c-.436 0-.727-.295-.727-.737V16.8L1.672 14.221C.725 14-.002 13.116-.002 12.084V7.368c0-1.252.946-2.21 2.182-2.21h27.637c1.237 0 2.182.958 2.182 2.21v4.716c0 1.032-.728 1.916-1.673 2.137zm-15.782 4.2h2.909v-2.947h-2.909v2.947zM30.543 7.368c0-.442-.29-.737-.726-.737H2.18c-.436 0-.727.295-.727.737v4.716c0 .368.219.663.582.737l11.055 2.505v-.589c0-.442.291-.737.727-.737h4.363c.437 0 .727.295.727.737v.589l11.056-2.505c.363-.074.58-.369.58-.737V7.368zM21.09 3.684c-.438 0-.728-.295-.728-.737V2.21c0-.442-.29-.736-.727-.736h-7.273c-.436 0-.726.294-.726.736v.737c0 .442-.292.737-.728.737-.437 0-.728-.295-.728-.737V2.21c0-1.252.945-2.21 2.182-2.21h7.273c1.236 0 2.182.958 2.182 2.21v.737c0 .442-.291.737-.727.737zM1.453 15.474c.437 0 .727.294.727.736v9.579c0 .442.291.737.728.737h26.181c.437 0 .728-.295.728-.737V16.21c0-.442.29-.736.726-.736.437 0 .728.294.728.736v9.579c0 1.253-.945 2.211-2.182 2.211H2.908c-1.236 0-2.183-.958-2.183-2.211V16.21c0-.442.293-.736.728-.736z"/>
</svg>
