<svg xmlns="http://www.w3.org/2000/svg" width="24" height="24" viewBox="0 0 24 24">
    <g fill="none" fill-rule="evenodd">
        <g>
            <g>
                <g>
                    <path d="M0 0L24 0 24 24 0 24z" transform="translate(-40.000000, -343.000000) translate(24.000000, 327.000000) translate(16.000000, 16.000000)"/>
                    <path fill="#A4A5A6" fill-rule="nonzero" d="M7 6V3c0-.552.448-1 1-1h12c.552 0 1 .448 1 1v14c0 .552-.448 1-1 1h-3v3c0 .552-.45 1-1.007 1H4.007c-.266.002-.522-.103-.711-.29C3.106 21.521 3 21.265 3 21l.003-14c0-.552.45-1 1.006-1H7zM5.002 8L5 20h10V8H5.002zM9 6h8v10h2V4H9v2zm-2 5h6v2H7v-2zm0 4h6v2H7v-2z" transform="translate(-40.000000, -343.000000) translate(24.000000, 327.000000) translate(16.000000, 16.000000)"/>
                </g>
            </g>
        </g>
    </g>
</svg>
