<svg xmlns="http://www.w3.org/2000/svg" width="32" height="27">
    <path fill="#4C4C4C" fillRule="evenodd" d="M18.585 27.006c-2.288 0-5.122-1.324-7.399-2.387-1.265-.591-2.561-1.194-3.186-1.267v1.046c0 .364-.299.66-.667.66H.666c-.368 0-.666-.296-.666-.66V12.529c0-.365.298-.66.666-.66h6.667c.368 0 .667.295.667.66v2.06c.045-.01.086-.027.135-.03 4.126.058 6.191 1.369 7.558 2.236.571.363 1.022.649 1.35.649.18 0 .405-.008.661-.017 1.649-.058 4.135-.149 5.26 1.133.324.369.502.811.534 1.317.888-.151 2.031-1.075 2.981-1.844 1.09-.881 1.951-1.578 2.773-1.578 1.432 0 2.385.652 2.748 1.815v1.814c-1.306 2.828-10.118 6.922-13.415 6.922zM6.666 13.188H1.333v10.55h5.333v-10.55zm22.586 4.586c-.346 0-1.261.74-1.929 1.28-1.463 1.183-3.118 2.518-4.713 2.075-.021-.007-.036-.02-.056-.028h-9.067c-.368 0-.666-.295-.666-.659 0-.365.298-.66.666-.66h8.65c-.041-.168-.113-.281-.18-.357-.707-.807-2.982-.725-4.205-.68-.274.01-.516.018-.709.018-.719 0-1.316-.378-2.07-.858-1.313-.834-3.111-1.975-6.856-2.027-.042-.001-.078-.017-.117-.025v6.176c.867.052 2.147.646 3.755 1.397 2.157 1.007 4.84 2.261 6.83 2.261 3.927 0 12.25-4.908 12.25-6.264 0-1.14-.489-1.649-1.583-1.649zm-4.432-3.267h-3.999c-1.103 0-2-.887-2-1.978 0-1.092.897-1.978 2-1.978h3.999c1.103 0 2.001.886 2.001 1.978 0 1.091-.898 1.978-2.001 1.978zm0-2.638h-3.999c-.368 0-.667.295-.667.66 0 .364.299.659.667.659h3.999c.369 0 .667-.295.667-.659 0-.365-.298-.66-.667-.66zm0-7.913h-3.999c-1.103 0-2-.888-2-1.978 0-1.091.897-1.979 2-1.979h3.999c1.103 0 2.001.888 2.001 1.979 0 1.09-.898 1.978-2.001 1.978zm0-2.638h-3.999c-.368 0-.667.296-.667.66 0 .363.299.659.667.659h3.999c.369 0 .667-.296.667-.659 0-.364-.298-.66-.667-.66zm-4.666 5.935c0 1.091-.898 1.979-2 1.979h-4c-1.103 0-2-.888-2-1.979 0-1.091.897-1.978 2-1.978h4c1.102 0 2 .887 2 1.978zm-2-.659h-4c-.368 0-.667.295-.667.659 0 .364.299.659.667.659h4c.368 0 .667-.295.667-.659 0-.364-.299-.659-.667-.659z"/>
</svg>
