<svg xmlns="http://www.w3.org/2000/svg" width="20" height="20">
    <path fill="#666" fill-rule="evenodd" d="M19.847 9.967c0 1.242-.989 2.256-2.221 2.297-.149.494-.347.973-.592 1.43.4.428.618.982.618 1.57 0 .614-.239 1.191-.673 1.624-.433.434-1.01.673-1.624.673-.588 0-1.142-.219-1.569-.619-.456.244-.935.442-1.43.592-.041 1.232-1.056 2.221-2.297 2.221-1.242 0-2.257-.989-2.297-2.221-.496-.15-.975-.348-1.431-.592-.426.399-.98.619-1.568.619-.614 0-1.191-.239-1.625-.674-.433-.432-.673-1.008-.673-1.621-.001-.589.218-1.144.619-1.572-.244-.457-.443-.936-.592-1.43C1.26 12.223.271 11.209.271 9.967c0-1.241.989-2.256 2.221-2.296.15-.495.348-.974.592-1.43-.4-.427-.62-.982-.619-1.571 0-.614.24-1.19.674-1.623.433-.434 1.01-.673 1.624-.673.587 0 1.141.219 1.568.619.456-.244.935-.442 1.431-.592.04-1.232 1.055-2.222 2.297-2.222 1.241 0 2.256.99 2.297 2.222.495.149.974.348 1.43.591.426-.398.981-.618 1.569-.618.614 0 1.191.239 1.625.673.433.433.672 1.01.672 1.624 0 .589-.219 1.143-.618 1.57.244.456.442.935.592 1.43 1.231.04 2.221 1.055 2.221 2.296zm-2.426-1.434l-.059.008c-.21.025-.412-.109-.465-.318-.168-.66-.431-1.292-.782-1.876-.11-.185-.066-.423.104-.555.044-.035.092-.063.14-.091.292-.279.443-.643.443-1.03 0-.386-.151-.749-.424-1.022-.547-.547-1.5-.547-2.047 0-.035.068-.062.115-.096.159-.132.169-.37.214-.554.102-.585-.349-1.217-.612-1.879-.78-.208-.053-.345-.254-.317-.468l.008-.053c.006-.044.013-.087.013-.131 0-.799-.649-1.448-1.447-1.448s-1.447.649-1.447 1.448c0 .045.008.089.014.133l.007.049c.029.215-.108.417-.317.47-.663.168-1.295.431-1.878.78-.183.111-.419.068-.552-.1-.036-.044-.065-.092-.092-.141-.562-.586-1.508-.567-2.054-.02-.273.273-.424.635-.424 1.022-.001.386.15.75.424 1.024.066.034.114.062.159.097.17.132.214.37.104.555-.351.584-.614 1.216-.782 1.876-.053.209-.254.343-.465.318l-.061-.008c-.041-.006-.082-.013-.126-.013-.798 0-1.447.649-1.447 1.447s.649 1.447 1.447 1.447c.044 0 .085-.007.126-.013l.061-.008c.211-.023.412.11.465.318.167.659.43 1.291.781 1.878.11.184.066.421-.103.554-.045.035-.093.063-.141.09-.292.28-.443.645-.442 1.032 0 .386.151.748.424 1.02.547.548 1.499.547 2.046.001.035-.068.064-.116.099-.161.083-.105.207-.162.334-.162.075 0 .151.02.219.061.582.35 1.214.613 1.878.781.209.053.346.256.317.47l-.007.049c-.007.044-.014.088-.014.133 0 .798.649 1.447 1.447 1.447s1.447-.649 1.447-1.447c0-.044-.007-.087-.013-.13l-.008-.054c-.028-.214.109-.415.317-.468.662-.168 1.294-.431 1.879-.781.184-.112.422-.067.554.104.034.044.062.09.088.138.563.587 1.508.567 2.055.02.273-.273.424-.636.424-1.022 0-.387-.151-.752-.424-1.025-.067-.033-.115-.061-.159-.096-.169-.133-.213-.37-.103-.554.351-.587.613-1.219.781-1.878.053-.208.255-.341.465-.318l.059.008c.043.006.085.013.128.013.797 0 1.446-.649 1.446-1.447s-.649-1.447-1.446-1.447c-.043 0-.085.007-.128.013zm-7.362 6.966c-3.051 0-5.532-2.482-5.532-5.532 0-3.051 2.481-5.532 5.532-5.532s5.532 2.481 5.532 5.532c0 3.05-2.481 5.532-5.532 5.532zm0-10.213c-2.581 0-4.681 2.1-4.681 4.681s2.1 4.681 4.681 4.681 4.681-2.1 4.681-4.681-2.1-4.681-4.681-4.681zm0 7.604c-1.611 0-2.922-1.312-2.922-2.923s1.311-2.922 2.922-2.922c1.611 0 2.922 1.311 2.922 2.922 0 1.611-1.311 2.923-2.922 2.923zm0-4.994c-1.142 0-2.071.929-2.071 2.071 0 1.142.929 2.071 2.071 2.071 1.142 0 2.071-.929 2.071-2.071 0-1.142-.929-2.071-2.071-2.071z"/>
</svg>
