<svg xmlns="http://www.w3.org/2000/svg" width="24" height="24" viewBox="0 0 24 24">
    <g fill="none" fill-rule="evenodd">
        <g>
            <g>
                <g>
                    <path d="M0 0L24 0 24 24 0 24z" transform="translate(-40.000000, -567.000000) translate(24.000000, 551.000000) translate(16.000000, 16.000000)"/>
                    <g fill="#A4A5A6" fill-rule="nonzero">
                        <path d="M19.987 15.65c-.46 2.498-2.642 4.311-5.186 4.311-2.907 0-5.273-2.366-5.273-5.273 0-2.908 2.366-5.274 5.273-5.274.483 0 .96.065 1.421.194.416.116.659.547.543.963-.116.415-.547.658-.963.542-.324-.09-.66-.136-1-.136-2.047 0-3.712 1.664-3.712 3.71 0 2.047 1.665 3.711 3.711 3.711 1.79 0 3.325-1.275 3.65-3.032.078-.424.485-.705.91-.626.424.078.704.485.626.91zm-6.196-1.866c-.305-.306-.8-.306-1.105 0-.305.305-.305.8 0 1.104l1.15 1.15c.267.267.617.4.967.4.348 0 .697-.131.962-.394l3.414-3.38c.307-.303.31-.797.006-1.104-.304-.307-.798-.31-1.105-.006l-3.276 3.242-1.013-1.012zM20 2.344v2.344c0 .431-.35.78-.781.78v3.126c0 .431-.35.781-.782.781-.431 0-.78-.35-.78-.781V5.469H2.343v11.406c0 .862.7 1.563 1.562 1.563h4.961c.432 0 .781.35.781.78 0 .432-.35.782-.78.782H3.905C2.183 20 .781 18.598.781 16.875V5.47C.35 5.469 0 5.119 0 4.688V2.344C0 1.05 1.051 0 2.344 0h15.312C18.95 0 20 1.051 20 2.344zM1.562 3.906h16.875V2.344c0-.431-.35-.781-.78-.781H2.343c-.431 0-.781.35-.781.78v1.563zM12.5 7.813c0-.432-.35-.782-.781-.782H8.203c-.431 0-.781.35-.781.782 0 .431.35.78.781.78h3.516c.431 0 .781-.349.781-.78z" transform="translate(-40.000000, -567.000000) translate(24.000000, 551.000000) translate(16.000000, 16.000000) translate(2.000000, 2.000000)"/>
                    </g>
                </g>
            </g>
        </g>
    </g>
</svg>
