<svg xmlns="http://www.w3.org/2000/svg" width="14" height="16">
    <path fill="#767676" fillRule="evenodd" d="M11.526 6.857v-.946h.644l-.404-1.286H9.678l-.403 1.286h.644v.946H7.454v-.946h.601L10.031 0h1.391l1.976 5.911H14v.946h-2.474zm-.662-5.161l-.103-.419c-.012-.095-.017-.155-.017-.179h-.034l-.027.179c0 .006-.009.059-.029.16-.021.102-.042.188-.065.259l-.627 1.947h1.52l-.618-1.947zM3.228 15.92c-.057.053-.123.08-.198.08-.069 0-.134-.027-.198-.08L.084 13.062c-.086-.095-.106-.199-.06-.312.046-.119.132-.179.257-.179h1.65V.286c0-.084.025-.152.077-.206.051-.053.117-.08.197-.08h1.65c.08 0 .146.027.197.08.052.054.077.122.077.206v12.285h1.65c.08 0 .146.027.197.08.052.054.078.123.078.206 0 .071-.029.143-.086.214l-2.74 2.849zm8.34-5.688l.094-.08v-.027l-.056.004c-.025.003-.046.005-.064.005-.068.018-.154.027-.257.027H9.292v1.026H8.261V9.143h4.871v.794l-3.17 4.733c-.034.047-.094.125-.18.232L9.687 15v.018L9.808 15c.051-.012.137-.018.257-.018h2.13V13.92h1.039V16H8.218v-.804l3.169-4.723c.069-.107.13-.187.181-.241z"/>
</svg>
