<svg xmlns="http://www.w3.org/2000/svg" width="25" height="32">
    <path fill="#4C4C4C" fillRule="evenodd" d="M24.535 32H.437c-.242 0-.438-.205-.438-.457V.457C-.001.205.195 0 .437 0h18.268c.116 0 .228.048.31.134l5.829 6.073c.083.086.128.202.128.323v25.013c0 .252-.196.457-.437.457zm-2.83-27.771l-2.561-2.667v4.511h4.33l-1.769-1.844zm2.391 2.758h-5.391c-.242 0-.439-.204-.439-.457V.914H.875v30.172h23.221V6.987zM4.352 17.907h16.267c.243 0 .44.204.44.457 0 .252-.197.457-.44.457H4.352c-.242 0-.439-.205-.439-.457 0-.253.197-.457.439-.457zm0 4.491h16.267c.243 0 .44.205.44.457 0 .253-.197.457-.44.457H4.352c-.242 0-.439-.204-.439-.457 0-.252.197-.457.439-.457zm0 4.493h16.267c.243 0 .44.205.44.457 0 .253-.197.458-.44.458H4.352c-.242 0-.439-.205-.439-.458 0-.252.197-.457.439-.457zm9.077-12.761H9.492c-.244 0-.441-.205-.441-.457s.197-.457.441-.457h.295V9.407l-.002-.009V5.58h-.293c-.244 0-.441-.205-.441-.457 0-.253.197-.457.441-.457h3.284c1.376 0 2.491 1.161 2.491 2.594 0 .761-.319 1.438-.819 1.912.866.407 1.472 1.309 1.472 2.364 0 1.433-1.115 2.594-2.491 2.594zm-.653-8.55h-2.113v3.361h2.113c.892 0 1.613-.753 1.613-1.681s-.721-1.68-1.613-1.68zm.653 4.275h-2.765v3.361h2.765c.891 0 1.613-.752 1.613-1.68 0-.929-.722-1.681-1.613-1.681z"/>
</svg>
