<svg xmlns="http://www.w3.org/2000/svg" width="24" height="24" viewBox="0 0 24 24">
    <g fill="none" fill-rule="evenodd">
        <g>
            <g>
                <g>
                    <path d="M0 0L24 0 24 24 0 24z" transform="translate(-40.000000, -623.000000) translate(24.000000, 607.000000) translate(16.000000, 16.000000)"/>
                    <g fill="#A4A5A6" fill-rule="nonzero">
                        <path stroke="#A4A5A6" stroke-width=".3" d="M16.069 3.931l-3.75-3.75C12.2.064 12.04 0 11.875 0h-10C.839 0 0 .84 0 1.875v16.25C0 19.161.84 20 1.875 20h12.5c1.036 0 1.875-.84 1.875-1.875V4.375c.001-.166-.064-.326-.181-.444zM15 18.125c0 .345-.28.625-.625.625h-12.5c-.345 0-.625-.28-.625-.625V1.875c0-.345.28-.625.625-.625h9.375v2.5c0 .69.56 1.25 1.25 1.25H15v13.125z" transform="translate(-40.000000, -623.000000) translate(24.000000, 607.000000) translate(16.000000, 16.000000) translate(4.000000, 2.000000)"/>
                        <path d="M12.5 15H13.75V16.25H12.5zM2.5 8.75H13.75V10H2.5zM2.5 11.875H13.75V13.125H2.5zM2.5 15H11.25V16.25H2.5z" transform="translate(-40.000000, -623.000000) translate(24.000000, 607.000000) translate(16.000000, 16.000000) translate(4.000000, 2.000000)"/>
                    </g>
                </g>
            </g>
        </g>
    </g>
</svg>
