<svg xmlns="http://www.w3.org/2000/svg" width="32" height="37">
    <path fill="#4C4C4C" fillRule="evenodd" d="M30.691 11.326c-.107.102-.246.153-.385.153-.143 0-.287-.055-.395-.165-.212-.214-.208-.557.011-.766.627-.596.972-1.395.972-2.247 0-.853-.345-1.652-.972-2.248-.219-.209-.223-.552-.011-.766.211-.215.561-.22.78-.012.843.803 1.308 1.877 1.308 3.025 0 1.149-.465 2.223-1.308 3.026zM29.04 9.875c-.104.085-.229.126-.354.126-.157 0-.315-.066-.424-.195-.195-.229-.164-.571.07-.763.226-.184.355-.455.355-.742 0-.288-.129-.558-.355-.743-.234-.192-.265-.534-.07-.763.195-.23.544-.26.778-.069.476.391.751.965.751 1.575 0 .609-.275 1.183-.751 1.574zm-4.981 1.381c.9.998.864 2.53-.109 3.485l-.076.074c-.489.48-1.14.745-1.832.745-.64 0-1.244-.226-1.718-.639l-2.567 2.52c-.281.275-.648.424-1.043.424l-.064-.001c-.304-.013-.541-.265-.528-.564.013-.299.272-.532.575-.518.075.002.184-.013.278-.107l8.871-8.705c.133-.131.114-.285.1-.345-.014-.06-.067-.206-.245-.266l-2.672-.887-3.163 3.104c-.107.106-.249.158-.39.158-.141 0-.282-.052-.39-.158-.216-.212-.216-.555 0-.766l3.015-2.959-1.436-1.409c-.215-.212-.215-.554 0-.766.216-.212.565-.211.781 0l1.734 1.702 2.875.956c.487.162.848.552.966 1.045.117.492-.03.999-.395 1.357l-2.567 2.52zm-.771.785l-2.165 2.124c.261.202.581.311.919.311.397 0 .771-.152 1.052-.427l.076-.075c.537-.527.576-1.361.118-1.933zm-5.057-1.626c.215.212.215.555 0 .766l-.325.319c-.108.106-.249.159-.39.159-.142 0-.283-.053-.391-.159-.215-.211-.215-.554 0-.766l.325-.319c.215-.211.565-.211.781 0zm.789-7.56c-.983-.813-2.234-1.233-3.523-1.182-1.297.05-2.517.574-3.434 1.475-2.009 1.971-2.009 5.178 0 7.15l.017.016c.215.212.214.555-.002.766-.106.106-.248.158-.389.158-.142 0-.283-.053-.391-.159l-.016-.016c-1.945-1.909-2.337-4.772-1.178-7.068l-.667-.654c-.377-.37-.585-.861-.585-1.384 0-.524.208-1.016.585-1.385.778-.764 2.044-.764 2.822 0l.664.652c.781-.381 1.64-.599 2.529-.634 1.565-.061 3.085.449 4.278 1.437.234.192.263.534.067.763-.196.229-.545.258-.777.065zm-7.541-1.517c-.349-.342-.914-.342-1.262 0-.168.165-.261.385-.261.618 0 .234.093.454.261.619l.48.471c.177-.231.371-.454.585-.664.212-.208.438-.4.675-.574l-.478-.47zM7.573 9.806c-.11.129-.266.195-.424.195-.125 0-.251-.041-.354-.126-.477-.391-.75-.965-.75-1.574 0-.61.273-1.184.75-1.575.234-.192.583-.161.778.069.195.229.163.571-.071.763-.224.185-.353.455-.353.743 0 .287.129.558.353.742.234.192.266.534.071.763zM4.94 8.301c0 .852.345 1.651.972 2.247.219.209.225.552.012.766-.108.11-.253.165-.396.165-.139 0-.277-.051-.383-.153-.844-.803-1.308-1.877-1.308-3.025 0-1.149.464-2.223 1.308-3.026.217-.208.567-.203.779.012.213.214.207.557-.012.766-.627.596-.972 1.395-.972 2.248zm.552 11.097h.554c.506 0 .969.185 1.325.489.368-.472.948-.778 1.599-.778h.555c.327 0 .636.078.91.214v-4.889c0-1.24 1.028-2.249 2.291-2.249 1.264 0 2.292 1.009 2.292 2.249v5.225c0 .3-.246.542-.553.542-.304 0-.552-.242-.552-.542v-5.225c0-.643-.532-1.166-1.187-1.166s-1.186.523-1.186 1.166v7.587c0 .299-.249.542-.554.542-.304 0-.551-.243-.551-.542v-.935c0-.493-.408-.894-.91-.894H8.97c-.501 0-.91.401-.91.894 0 .033-.003.066-.01.098.007.063.01.126.01.191v.646c0 .299-.248.542-.552.542-.305 0-.551-.243-.551-.542v-.646c0-.493-.41-.894-.911-.894h-.554c-.501 0-.912.401-.912.894v.646c0 .299-.246.542-.551.542-.305 0-.551-.243-.551-.542v-.141c0-.492-.409-.893-.911-.893h-.554c-.502 0-.911.401-.911.893v4.667c0 .299-.247.542-.551.542-.305 0-.553-.243-.553-.542V21.88c0-1.09.905-1.977 2.015-1.977h.554c.461 0 .886.154 1.227.411.357-.55.985-.916 1.698-.916zM.551 28.314c.304 0 .551.242.551.541v2.111c0 .337.116.668.329.932l.933 1.168c.076.096.118.214.118.335v3.057c0 .299-.247.542-.552.542-.305 0-.552-.243-.552-.542v-2.87l-.816-1.021c-.363-.455-.564-1.023-.564-1.601v-2.111c0-.299.248-.541.553-.541zm13.914-6.888c.307 0 .553.243.553.542v1.434c0 .017.013.031.031.031h.962c1.343 0 2.435 1.072 2.435 2.391v4.922c0 .377-.12.737-.349 1.04l-2.036 2.706v1.966c0 .299-.247.542-.551.542-.306 0-.553-.243-.553-.542v-2.144c0-.116.038-.229.109-.322l2.144-2.85c.087-.115.133-.252.133-.396v-4.922c0-.721-.598-1.308-1.332-1.308h-.962c-.626 0-1.136-.499-1.136-1.114v-1.434c0-.299.248-.542.552-.542z"/>
</svg>
