<svg xmlns="http://www.w3.org/2000/svg" width="24" height="24" viewBox="0 0 24 24">
    <g fill="none" fill-rule="evenodd">
        <g>
            <g>
                <g>
                    <path d="M0 0L24 0 24 24 0 24z" transform="translate(-40.000000, -679.000000) translate(24.000000, 663.000000) translate(16.000000, 16.000000)"/>
                    <g fill="#A4A5A6" fill-rule="nonzero">
                        <path stroke="#A4A5A6" stroke-width=".6" d="M20.387 12.48c-.348-.042-.665.207-.707.556-.522 4.376-4.25 7.677-8.67 7.677-2.033 0-4.013-.713-5.574-2.008-1.376-1.14-2.37-2.679-2.842-4.383l.759.417c.308.17.694.057.863-.25.169-.308.057-.695-.251-.864l-1.95-1.071c-.308-.169-.694-.057-.863.25L.079 14.752c-.17.308-.057.694.25.864.397.181.705.014.863-.25l.25-.454c.568 1.853 1.675 3.522 3.182 4.772 1.79 1.483 4.057 2.3 6.386 2.3 5.064 0 9.334-3.782 9.932-8.798.042-.348-.207-.665-.555-.706h0zM21.31 5.428c-.321-.14-.696.01-.834.332l-.2.464c-.653-1.593-1.718-3.014-3.083-4.087C15.415.739 13.277 0 11.01 0 8.702 0 6.45.804 4.668 2.264c-1.756 1.44-2.98 3.45-3.446 5.658-.073.343.147.68.49.753.425.014.69-.191.753-.49.407-1.927 1.476-3.68 3.01-4.938 1.554-1.274 3.52-1.976 5.535-1.976 1.98 0 3.846.645 5.397 1.865 1.258.99 2.224 2.316 2.783 3.8l-.805-.346c-.322-.139-.696.01-.835.333-.138.322.01.696.333.835l2.045.88c.367.112.678.05.834-.333l.88-2.042c.14-.322-.009-.696-.331-.835h0z" transform="translate(-40.000000, -679.000000) translate(24.000000, 663.000000) translate(16.000000, 16.000000) translate(1.000000, 1.000000)"/>
                        <path d="M7.141 12.409c-.35 0-.635.284-.635.635v.255c0 1.335 1.087 2.422 2.424 2.422h.264v1.13c0 .352.285.637.636.637.35 0 .635-.285.635-.636V15.72h.764v1.13c0 .352.285.637.636.637.351 0 .636-.285.636-.636V15.72h.264c1.336 0 2.424-1.087 2.424-2.422v-.368c0-.952-.64-1.795-1.558-2.051l-1.13-.316v-3.12h.264c.635 0 1.153.517 1.153 1.151v.102c0 .351.284.636.635.636.351 0 .636-.285.636-.636v-.102c0-1.335-1.088-2.422-2.424-2.422H12.5v-1.04c0-.352-.284-.636-.635-.636-.351 0-.636.284-.636.635v1.041h-.764v-1.04c0-.352-.284-.636-.635-.636-.351 0-.636.284-.636.635v1.041H8.93c-1.337 0-2.424 1.087-2.424 2.422 0 .951.64 1.794 1.557 2.05l1.131.316v3.488H8.93c-.636 0-1.153-.516-1.153-1.15v-.255c0-.35-.284-.635-.636-.635zm6.149-.305c.37.104.628.443.628.826v.37c0 .633-.517 1.15-1.153 1.15h-.264v-2.566l.789.22zm-2.06-4.66v2.765l-.765-.213V7.444h.764zM8.404 9.421c-.37-.103-.628-.443-.628-.826 0-.634.517-1.15 1.153-1.15h.264V9.64l-.789-.22zm2.06 1.895l.764.213v2.92h-.764v-3.133z" transform="translate(-40.000000, -679.000000) translate(24.000000, 663.000000) translate(16.000000, 16.000000) translate(1.000000, 1.000000)"/>
                    </g>
                </g>
            </g>
        </g>
    </g>
</svg>
