<svg xmlns="http://www.w3.org/2000/svg" width="24" height="24" viewBox="0 0 24 24">
    <g fill="none" fill-rule="evenodd">
        <g>
            <g>
                <g>
                    <path d="M0 0L24 0 24 24 0 24z" transform="translate(-40.000000, -511.000000) translate(24.000000, 495.000000) translate(16.000000, 16.000000)"/>
                    <path fill="#A4A5A6" fill-rule="nonzero" d="M17.618 5.968l1.453-1.453 1.414 1.414-1.453 1.453c2.981 3.731 2.528 9.142-1.032 12.326-3.56 3.184-8.986 3.033-12.364-.344C2.26 15.986 2.108 10.559 5.292 7c3.184-3.56 8.595-4.013 12.326-1.032zM12 20c2.5 0 4.812-1.334 6.062-3.5s1.25-4.834 0-7C16.812 7.334 14.501 6 12 6c-3.866 0-7 3.134-7 7s3.134 7 7 7zM11 8h2v6h-2V8zM8 1h8v2H8V1z" transform="translate(-40.000000, -511.000000) translate(24.000000, 495.000000) translate(16.000000, 16.000000)"/>
                </g>
            </g>
        </g>
    </g>
</svg>
