<svg xmlns="http://www.w3.org/2000/svg" width="33" height="33">
    <path fill="#4C4C4C" fillRule="evenodd" d="M30.498 6.312h-1.02c2.278 2.898 3.52 6.469 3.52 10.188 0 4.407-1.716 8.551-4.832 11.667C25.05 31.284 20.906 33 16.499 33c-4.408 0-8.551-1.716-11.668-4.833C1.714 25.051-.001 20.907-.001 16.5S1.714 7.949 4.831 4.833C7.948 1.716 12.091 0 16.499 0c.673 0 1.348.041 2.011.121.353.043.604.364.561.717-.043.354-.363.605-.716.562-.612-.074-1.236-.112-1.856-.112-8.388 0-15.212 6.824-15.212 15.212s6.824 15.212 15.212 15.212c8.387 0 15.212-6.824 15.212-15.212 0-3.302-1.063-6.477-3.017-9.093v.709c0 .355-.289.644-.644.644-.357 0-.645-.289-.645-.644V5.668c0-.356.288-.644.645-.644h2.448c.355 0 .643.288.643.644 0 .356-.288.644-.643.644zM8.769 16.49c0 .355-.289.644-.644.644h-.794c-.356 0-.645-.289-.645-.644 0-.356.289-.645.645-.645h.794c.355 0 .644.289.644.645zm-.514-8.878c.169 0 .336.069.455.189.12.12.189.286.189.455 0 .169-.069.336-.189.455-.119.12-.286.189-.455.189-.17 0-.336-.069-.456-.189-.119-.119-.188-.285-.188-.455 0-.169.069-.336.188-.455.12-.12.286-.189.456-.189zm16.617 8.254h.794c.356 0 .644.289.644.644 0 .356-.288.644-.644.644h-.794c-.355 0-.645-.288-.645-.644 0-.355.29-.644.645-.644zm-9.007-7.74v-.794c0-.356.288-.644.644-.644.356 0 .644.288.644.644v.794c0 .356-.288.644-.644.644-.356 0-.644-.288-.644-.644zm1.268 16.747v.795c0 .355-.289.644-.645.644-.355 0-.644-.289-.644-.644v-.795c0-.355.289-.644.644-.644.356 0 .645.289.645.644zM12.359 12.36c.251-.251.659-.251.911 0l2.183 2.183c.312-.167.668-.262 1.046-.262.377 0 .734.095 1.045.262l4.405-4.404c.252-.252.659-.252.911 0 .251.251.251.659 0 .911l-4.405 4.404c.167.312.263.668.263 1.046 0 1.224-.996 2.219-2.219 2.219-1.224 0-2.219-.995-2.219-2.219 0-.378.095-.734.262-1.046l-2.183-2.183c-.252-.251-.252-.659 0-.911zm4.14 5.071c.513 0 .931-.418.931-.931 0-.513-.418-.931-.931-.931-.514 0-.931.418-.931.931 0 .513.417.931.931.931zm8.699 7.768c-2.399 2.398-5.549 3.598-8.699 3.598-3.15 0-6.302-1.2-8.7-3.598-1.988-1.987-3.243-4.618-3.535-7.408-.288-2.749.362-5.542 1.832-7.865.191-.3.589-.389.889-.199.301.19.39.588.199.889-2.728 4.309-2.086 10.059 1.527 13.672 4.294 4.295 11.281 4.295 15.576 0 4.293-4.294 4.293-11.282 0-15.576-3.664-3.664-9.278-4.296-13.654-1.538-.301.19-.699.1-.888-.201-.19-.301-.101-.699.201-.888 2.321-1.464 5.111-2.109 7.855-1.819 2.787.295 5.412 1.551 7.397 3.535 4.796 4.796 4.796 12.602 0 17.398zM20.96 1.924c-.169 0-.335-.068-.455-.188s-.188-.286-.188-.456c0-.169.068-.335.188-.455s.286-.189.455-.189c.17 0 .337.069.456.189.12.12.189.286.189.455 0 .17-.069.336-.189.456-.119.12-.286.188-.456.188z"/>
</svg>
