<svg xmlns="http://www.w3.org/2000/svg" width="24" height="24" viewBox="0 0 24 24">
    <g fill="none" fill-rule="evenodd">
        <g>
            <g>
                <g>
                    <path d="M0 0L24 0 24 24 0 24z" transform="translate(-40.000000, -287.000000) translate(24.000000, 271.000000) translate(16.000000, 16.000000)"/>
                    <g fill="#A4A5A6" fill-rule="nonzero">
                        <path stroke="#A4A5A6" stroke-width=".3" d="M19.883 8.37c.24-.628.107-1.367-.398-1.872L13.502.514c-.686-.685-1.8-.685-2.486 0L4.289 7.241H1.758C.788 7.241 0 8.03 0 9v9.243C0 19.21.789 20 1.758 20h16.484c.97 0 1.758-.789 1.758-1.758V8.999c0-.222-.042-.434-.117-.63zM18.61 7.28c-.118-.025-.242-.039-.368-.039h-1.27l.8-.8.838.84zm-1.667-1.667l-1.628 1.628h-1.657l2.457-2.457.828.83zm-5.098-4.27c.114-.114.264-.171.414-.171.15 0 .3.057.414.171l2.613 2.613-3.285 3.285H5.947l5.898-5.898zm6.983 16.899c0 .323-.263.586-.586.586H1.758c-.323 0-.586-.263-.586-.586V8.999c0-.323.263-.586.586-.586h16.484c.323 0 .586.263.586.586v9.243z" transform="translate(-40.000000, -287.000000) translate(24.000000, 271.000000) translate(16.000000, 16.000000) translate(2.000000, 2.000000)"/>
                        <path d="M10.745 15.882L13.475 15.882 13.475 17.054 10.745 17.054zM14.965 15.882L17.695 15.882 17.695 17.054 14.965 17.054zM5.323 9.975H3.32c-.538 0-.976.439-.976.977v1.563c0 .538.438.976.976.976h2.003c.538 0 .976-.438.976-.976v-1.563c0-.538-.438-.977-.976-.977zm-.195 2.344H3.516v-1.172h1.612v1.172z" transform="translate(-40.000000, -287.000000) translate(24.000000, 271.000000) translate(16.000000, 16.000000) translate(2.000000, 2.000000)"/>
                    </g>
                </g>
            </g>
        </g>
    </g>
</svg>
