<svg xmlns="http://www.w3.org/2000/svg" width="32" height="29">
    <path fill="#4C4C4C" fillRule="evenodd" d="M31.288 18.541h-8.285v9.746c0 .394-.318.713-.711.713H9.705c-.393 0-.711-.319-.711-.713V12.789H5.276c-.393.001-.712-.317-.712-.71V6.056c0-.394.317-.713.709-.713H26.72c.394 0 .712.319.712.713v6.02c0 .394-.318.713-.712.713h-3.717v4.327h7.573V1.424H1.421v15.692h2.773c.393 0 .712.319.712.713 0 .393-.319.712-.712.712H.71c-.393 0-.712-.319-.712-.712V.712c0-.394.319-.713.712-.713h30.578c.393 0 .71.319.71.713v17.117c0 .393-.317.712-.71.712zm-9.708 9.03v-1.368c-.707.167-1.281.683-1.524 1.368h1.524zm-11.164 0h1.296c-.216-.606-.691-1.083-1.296-1.299v1.299zm15.595-16.207V6.769H5.986v4.595h3.009V9.78H7.803c-.393 0-.711-.319-.711-.712 0-.394.318-.713.711-.713h16.391c.393 0 .711.319.711.713 0 .393-.318.712-.711.712H10.417v15.011c1.398.288 2.49 1.383 2.777 2.783h5.38c.305-1.482 1.51-2.611 3.006-2.818v-12.68c0-.393.318-.712.711-.712h3.72zm-9.956 11.011c-2.605 0-4.716-2.116-4.715-4.726 0-2.61 2.111-4.725 4.715-4.725 2.604.004 4.711 2.118 4.715 4.726 0 2.61-2.111 4.726-4.715 4.725zm3.294-4.726c-.001-1.822-1.476-3.3-3.294-3.299-1.819 0-3.294 1.478-3.294 3.3.001 1.823 1.476 3.3 3.294 3.3 1.817-.004 3.29-1.479 3.294-3.3v-.001zm-12.79-.533h.194c.394 0 .713.319.713.713 0 .393-.319.712-.713.712h-.194c-.393 0-.712-.319-.712-.712 0-.394.319-.713.712-.713z"/>
</svg>
