<svg xmlns="http://www.w3.org/2000/svg" width="16" height="16">
    <path fill="#FA6E31" fillRule="evenodd" d="M8 16C3.588 16-.001 12.411-.001 8S3.588 0 8 0c4.411 0 8 3.589 8 8s-3.589 8-8 8zM8 1C4.14 1 1 4.14 1 8s3.14 7 7 7c3.859 0 7-3.14 7-7s-3.141-7-7-7zm1.5 11.667H6.499c-.275 0-.499-.224-.499-.5 0-.277.224-.501.499-.501h1V7h-.666c-.276 0-.5-.224-.5-.5s.224-.5.5-.5H8c.276 0 .5.224.5.5v5.166h1c.276 0 .5.224.5.501 0 .276-.224.5-.5.5zM8 4.666c-.369 0-.667-.298-.667-.666 0-.368.298-.667.667-.667.368 0 .666.299.666.667 0 .368-.298.666-.666.666z"/>
</svg>
