<svg xmlns="http://www.w3.org/2000/svg" width="24" height="24" viewBox="0 0 24 24">
    <g fill="none" fill-rule="evenodd">
        <g>
            <g>
                <g>
                    <path d="M0 0L24 0 24 24 0 24z" transform="translate(-1238.000000, -336.000000) translate(280.000000, 306.000000) translate(958.000000, 30.000000)"/>
                    <path fill="#383838" fill-rule="nonzero" d="M13 13.35V8.4c0-1.988-1.612-3.6-3.6-3.6S5.8 6.412 5.8 8.4v4.95c0 3.23 2.62 5.85 5.85 5.85 3.23 0 5.85-2.62 5.85-5.85V4.8h1.8v8.55c0 4.225-3.425 7.65-7.65 7.65C7.425 21 4 17.575 4 13.35V8.4c0-1.93 1.03-3.712 2.7-4.677 1.67-.964 3.73-.964 5.4 0 1.67.965 2.7 2.748 2.7 4.677v4.95c0 1.74-1.41 3.15-3.15 3.15S8.5 15.09 8.5 13.35V8.4h1.8v4.95c0 .746.604 1.35 1.35 1.35.746 0 1.35-.604 1.35-1.35z" transform="translate(-1238.000000, -336.000000) translate(280.000000, 306.000000) translate(958.000000, 30.000000)"/>
                </g>
            </g>
        </g>
    </g>
</svg>
