<svg xmlns="http://www.w3.org/2000/svg" width="24" height="24" viewBox="0 0 24 24">
    <g fill="none" fill-rule="evenodd">
        <g>
            <g>
                <g>
                    <g>
                        <path d="M0 0L24 0 24 24 0 24z" transform="translate(-464.000000, -445.000000) translate(280.000000, 240.000000) translate(24.000000, 189.000000) translate(160.000000, 16.000000)"/>
                        <path fill="#383838" fill-rule="nonzero" d="M17 3h4c.552 0 1 .448 1 1v16c0 .552-.448 1-1 1H3c-.552 0-1-.448-1-1V4c0-.552.448-1 1-1h4V1h2v2h6V1h2v2zm-2 2H9v2H7V5H4v4h16V5h-3v2h-2V5zm5 6H4v8h16v-8z" transform="translate(-464.000000, -445.000000) translate(280.000000, 240.000000) translate(24.000000, 189.000000) translate(160.000000, 16.000000)"/>
                    </g>
                </g>
            </g>
        </g>
    </g>
</svg>
