<svg xmlns="http://www.w3.org/2000/svg" width="47" height="48" viewBox="0 0 47 48">
    <g fill="none" fill-rule="evenodd">
        <g>
            <g>
                <g>
                    <path fill="#F0EEFA" d="M45.138 8.012v36.004c0 1.682-1.364 3.047-3.047 3.047H4.034c-1.683 0-3.047-1.365-3.047-3.047V8.012c0-1.683 1.364-3.047 3.047-3.047h2.318v1.754c0 1.255 1.017 2.273 2.273 2.273 1.255 0 2.272-1.018 2.272-2.273 0 1.255 1.017 2.273 2.273 2.273 1.255 0 2.272-1.018 2.272-2.273V4.965h15.241v1.754c0 1.255 1.017 2.273 2.272 2.273 1.256 0 2.273-1.018 2.273-2.273 0 1.255 1.017 2.273 2.272 2.273 1.256 0 2.273-1.018 2.273-2.273V4.965h2.318c1.683 0 3.047 1.364 3.047 3.047z" transform="translate(-382.000000, -761.000000) translate(358.000000, 734.000000) translate(24.000000, 27.000000)"/>
                    <path fill="#6D5ED3" d="M10.035 21.656L18.641 21.656 18.641 27.756 10.035 27.756zM10.035 33.851L18.641 33.851 18.641 39.951 10.035 39.951z" transform="translate(-382.000000, -761.000000) translate(358.000000, 734.000000) translate(24.000000, 27.000000)"/>
                    <path fill="#CFC8F2" d="M.987 14.955V8.012c0-1.683 1.364-3.047 3.047-3.047h2.318v1.754c0 1.255 1.017 2.273 2.273 2.273 1.255 0 2.272-1.018 2.272-2.273 0 1.255 1.017 2.273 2.273 2.273 1.255 0 2.272-1.018 2.272-2.273V4.965h15.241v1.754c0 1.255 1.017 2.273 2.272 2.273 1.256 0 2.273-1.018 2.273-2.273 0 1.255 1.017 2.273 2.272 2.273 1.256 0 2.273-1.018 2.273-2.273V4.965h2.318c1.683 0 3.047 1.364 3.047 3.047v6.943H.987z" transform="translate(-382.000000, -761.000000) translate(358.000000, 734.000000) translate(24.000000, 27.000000)"/>
                    <g fill="#E2E7EF" fill-rule="nonzero">
                        <path d="M2.343 8.055C1.105 8.055.071 7.02.071 5.782v-3.51C.07 1.018 1.087 0 2.342 0s2.273 1.017 2.273 2.273v3.509c0 1.255-1.018 2.273-2.273 2.273zM6.889 8.055c-1.256 0-2.273-1.018-2.273-2.273v-3.51C4.616 1.019 5.633 0 6.889 0 8.144 0 9.16 1.017 9.16 2.273v3.509c0 1.255-1.017 2.273-2.272 2.273zM26.674 8.055c-1.238 0-2.273-1.035-2.273-2.273v-3.51C24.401 1.019 25.42 0 26.674 0c1.255 0 2.273 1.017 2.273 2.273v3.509c0 1.255-1.018 2.273-2.273 2.273zM31.22 8.055c-1.256 0-2.273-1.018-2.273-2.273v-3.51C28.947 1.019 29.964 0 31.219 0c1.256 0 2.273 1.017 2.273 2.273v3.509c0 1.255-1.017 2.273-2.273 2.273z" transform="translate(-382.000000, -761.000000) translate(358.000000, 734.000000) translate(24.000000, 27.000000) translate(6.281250, 0.937500)"/>
                    </g>
                    <g fill="#000" fill-rule="nonzero">
                        <path d="M37.028 21.505H25.623c-.518 0-.938.42-.938.937 0 .518.42.938.938.938h11.405c.517 0 .937-.42.937-.938s-.42-.937-.937-.937zM25.623 27.114h7.875c.518 0 .938-.42.938-.938 0-.517-.42-.937-.938-.937h-7.875c-.518 0-.938.42-.938.938 0 .517.42.937.938.937zM18.64 20.718h-8.605c-.518 0-.937.42-.937.938v6.1c0 .518.42.937.937.937h8.606c.518 0 .937-.42.937-.937v-6.1c0-.518-.42-.938-.937-.938zm-.937 6.1h-6.73v-4.225h6.73v4.225zM18.64 32.913h-8.605c-.518 0-.937.42-.937.938v6.1c0 .517.42.937.937.937h8.606c.518 0 .937-.42.937-.937v-6.1c0-.518-.42-.938-.937-.938zm-.937 6.1h-6.73v-4.225h6.73v4.225zM37.028 33.7H25.623c-.518 0-.938.42-.938.937 0 .518.42.937.938.937h11.405c.517 0 .937-.42.937-.937 0-.518-.42-.938-.937-.938zM33.498 37.48h-7.875c-.518 0-.938.42-.938.938s.42.938.938.938h7.875c.518 0 .938-.42.938-.938 0-.517-.42-.937-.938-.937zM10.032 15.313c.193.472.753.703 1.224.507.472-.196.702-.75.507-1.223-.195-.472-.753-.703-1.224-.507-.471.195-.704.751-.507 1.223z" transform="translate(-382.000000, -761.000000) translate(358.000000, 734.000000) translate(24.000000, 27.000000)"/>
                        <path d="M42.091 4.027h-1.38V3.21C40.71 1.44 39.27 0 37.5 0c-.887 0-1.692.362-2.273.945C34.647.362 33.842 0 32.955 0c-1.77 0-3.21 1.44-3.21 3.21v.817H16.38V3.21c0-1.77-1.44-3.21-3.21-3.21-.887 0-1.692.362-2.273.945C10.316.362 9.511 0 8.625 0c-1.77 0-3.21 1.44-3.21 3.21v.817H4.034C1.837 4.027.049 5.816.049 8.012v36.004C.05 46.212 1.837 48 4.034 48H42.09c2.197 0 3.985-1.788 3.985-3.984V8.012c0-2.197-1.788-3.985-3.985-3.985zm-5.926-.817c0-.736.6-1.335 1.335-1.335.737 0 1.335.6 1.335 1.335v3.51c0 .725-.608 1.335-1.335 1.335-.735 0-1.335-.6-1.335-1.336V3.21zm-4.545 0c0-.736.6-1.335 1.335-1.335.736 0 1.335.6 1.335 1.335v3.509c0 .271-.081.523-.22.733-.239.363-.65.603-1.115.603-.727 0-1.335-.609-1.335-1.336V3.21zm-19.785 0c0-.736.599-1.335 1.335-1.335s1.335.6 1.335 1.335v3.51c0 .724-.61 1.335-1.335 1.335-.736 0-1.335-.6-1.335-1.336V3.21zm-4.545 0c0-.736.599-1.335 1.335-1.335.735 0 1.335.6 1.335 1.335v3.509c0 .277-.085.534-.228.746-.241.356-.647.59-1.107.59-.727 0-1.335-.61-1.335-1.336V3.21zM44.2 14.018H15.028c-.518 0-.938.42-.938.937 0 .518.42.938.938.938H44.2v28.123c0 1.163-.946 2.109-2.11 2.109H4.034c-1.164 0-2.11-.946-2.11-2.11V15.872c.54-.002 4.408 0 4.564 0 .514.023.95-.442.95-.941 0-.494-.44-.98-.956-.938-.326.007-2.529-.007-4.558 0v-5.98c0-1.164.946-2.11 2.11-2.11h1.38v.817c0 1.747 1.464 3.211 3.21 3.211.887 0 1.692-.362 2.273-.945.581.583 1.386.945 2.273.945 1.748 0 3.21-1.464 3.21-3.21v-.817h13.365v.816c0 1.748 1.463 3.211 3.21 3.211.887 0 1.692-.362 2.273-.945.581.583 1.386.945 2.272.945 1.749 0 3.21-1.464 3.21-3.21v-.817h1.381c1.164 0 2.11.945 2.11 2.109v6.005z" transform="translate(-382.000000, -761.000000) translate(358.000000, 734.000000) translate(24.000000, 27.000000)"/>
                    </g>
                </g>
            </g>
        </g>
    </g>
</svg>
