<svg width="45" height="30" fill="none" xmlns="http://www.w3.org/2000/svg">
    <path d="M27.763 9.737H17.237v10.526h10.526V9.737z" fill="#fff"/>
    <path d="m27.763 25 4.737-4.737h-4.737V25z" fill="#EA4335"/>
    <path d="M32.5 9.737h-4.737v10.526H32.5V9.737z" fill="#FBBC04"/>
    <path d="M27.763 20.263H17.237V25h10.526v-4.737z" fill="#34A853"/>
    <path d="M12.5 20.263v3.158c0 .872.707 1.579 1.579 1.579h3.158v-4.737H12.5z" fill="#188038"/>
    <path d="M32.5 9.737V6.579C32.5 5.707 31.793 5 30.921 5h-3.158v4.737H32.5z" fill="#1967D2"/>
    <path d="M27.763 5H14.08c-.872 0-1.579.707-1.579 1.579v13.684h4.737V9.737h10.526V5z" fill="#4285F4"/>
    <path d="M19.396 17.903c-.393-.266-.666-.654-.814-1.167l.913-.377c.083.316.227.56.434.734.205.174.455.26.747.26.299 0 .556-.091.77-.273a.87.87 0 0 0 .322-.693.86.86 0 0 0-.339-.703c-.226-.181-.51-.272-.85-.272h-.528v-.904h.474c.292 0 .538-.079.738-.237.2-.158.3-.374.3-.649 0-.244-.09-.44-.268-.585-.18-.146-.405-.22-.68-.22-.269 0-.482.071-.64.215a1.259 1.259 0 0 0-.345.527l-.904-.376c.12-.34.34-.64.662-.899.323-.259.734-.39 1.234-.39.37 0 .703.072.998.215.294.144.526.342.693.595.167.254.25.538.25.854 0 .322-.077.595-.233.818a1.606 1.606 0 0 1-.572.515v.054c.292.12.546.318.734.572a1.5 1.5 0 0 1 .287.921c0 .358-.09.678-.272.958-.182.28-.433.501-.752.662-.32.16-.679.242-1.077.242a2.23 2.23 0 0 1-1.282-.397zm5.61-4.532-1.003.725-.502-.76 1.799-1.298h.69v6.12h-.985V13.37z" fill="#4285F4"/>
</svg>
