<svg width="99" height="90" viewBox="0 0 99 90" fill="none" xmlns="http://www.w3.org/2000/svg">
    <path fill-rule="evenodd" clip-rule="evenodd" d="M62.126 73.515H8.662a6.728 6.728 0 0 1-6.728-6.728V9.425c0-4.112 3.012-7.447 6.728-7.447h13.766c3.631 0 6.574 3.257 6.574 7.277v6.334h51.275a6.728 6.728 0 0 1 6.728 6.728v31.434" fill="#F0EEFA"/>
    <circle cx="79.272" cy="69.56" r="17.594" fill="#6D5ED3"/>
    <path d="m86.044 73.598-4.038-4.038 4.102-4.103a1.934 1.934 0 0 0-2.734-2.734l-4.103 4.103-4.038-4.039a1.934 1.934 0 0 0-2.734 2.735l4.038 4.038-4.103 4.102a1.933 1.933 0 0 0 2.735 2.735l4.102-4.103 4.038 4.038a1.933 1.933 0 0 0 2.735-2.734z" fill="#fff"/>
    <path fill-rule="evenodd" clip-rule="evenodd" d="M88.939 52.592a19.487 19.487 0 0 1 4.14 3.16A19.401 19.401 0 0 1 98.8 69.56a19.4 19.4 0 0 1-5.72 13.808 19.4 19.4 0 0 1-13.807 5.72 19.4 19.4 0 0 1-13.809-5.72 19.433 19.433 0 0 1-4.819-7.92H8.662C3.886 75.449 0 71.564 0 66.789V47.226a1.934 1.934 0 0 1 3.867 0v19.56a4.8 4.8 0 0 0 4.795 4.795h51.185a19.887 19.887 0 0 1-.103-2.022 19.4 19.4 0 0 1 5.72-13.809c5.296-5.296 12.904-6.907 19.608-4.834v-28.6a4.8 4.8 0 0 0-4.795-4.794H29.002a1.934 1.934 0 0 1-1.934-1.934V9.255c0-2.947-2.081-5.344-4.64-5.344H8.662c-2.644 0-4.795 2.474-4.795 5.514v18.59a1.934 1.934 0 0 1-3.867 0V9.425C0 4.253 3.886.045 8.662.045h13.766c4.691 0 8.507 4.131 8.507 9.21v4.4h49.342c4.776 0 8.662 3.886 8.662 8.663v30.274zM79.272 85.22c4.182 0 8.115-1.63 11.073-4.587a15.558 15.558 0 0 0 4.587-11.074c0-4.183-1.629-8.116-4.587-11.074a15.612 15.612 0 0 0-11.073-4.58c-4.01 0-8.022 1.527-11.075 4.58A15.558 15.558 0 0 0 63.61 69.56c0 4.183 1.63 8.116 4.587 11.074a15.559 15.559 0 0 0 11.075 4.587z" fill="#000"/>
    <circle cx="1.933" cy="37.562" r="1.933" fill="#000"/>
</svg>
