<svg xmlns="http://www.w3.org/2000/svg" width="24" height="24" viewBox="0 0 24 24">
    <g fill="none" fill-rule="evenodd">
        <g>
            <g>
                <g>
                    <path d="M0 0L24 0 24 24 0 24z" transform="translate(-879.000000, -92.000000) translate(433.000000, 62.000000) translate(446.000000, 30.000000)"/>
                    <path fill="#f46237" fill-rule="nonzero" d="M12 22C6.477 22 2 17.523 2 12S6.477 2 12 2s10 4.477 10 10-4.477 10-10 10zm0-2c4.418 0 8-3.582 8-8s-3.582-8-8-8-8 3.582-8 8 3.582 8 8 8zm0-9.414l2.828-2.829 1.415 1.415L13.414 12l2.829 2.828-1.415 1.415L12 13.414l-2.828 2.829-1.415-1.415L10.586 12 7.757 9.172l1.415-1.415L12 10.586z" transform="translate(-879.000000, -92.000000) translate(433.000000, 62.000000) translate(446.000000, 30.000000)"/>
                </g>
            </g>
        </g>
    </g>
</svg>
