<svg xmlns="http://www.w3.org/2000/svg" width="24" height="24" viewBox="0 0 24 24">
    <g fill="none" fill-rule="evenodd">
        <g>
            <g>
                <path d="M0 0L24 0 24 24 0 24z" transform="translate(-1238.000000, -263.000000) translate(280.000000, 233.000000) translate(958.000000, 30.000000)"/>
                <path fill="#F46237" fill-rule="nonzero" d="M7 4V2h10v2h5v2h-2v15c0 .552-.448 1-1 1H5c-.552 0-1-.448-1-1V6H2V4h5zM6 6v14h12V6H6zm3 3h2v8H9V9zm4 0h2v8h-2V9z" transform="translate(-1238.000000, -263.000000) translate(280.000000, 233.000000) translate(958.000000, 30.000000)"/>
            </g>
        </g>
    </g>
</svg>
