<svg width="9" height="17" xmlns="http://www.w3.org/2000/svg">
    <path d="M5.03 16.566v-1.458c.78-.072 1.455-.288 2.025-.648.57-.36 1.002-.804 1.296-1.332a3.424 3.424 0 0 0 .441-1.692c0-.792-.174-1.413-.522-1.863a3.107 3.107 0 0 0-1.278-.99c-.504-.21-1.158-.411-1.962-.603V4.092c.42.108.756.309 1.008.603s.396.627.432.999h2.196c-.084-.996-.447-1.779-1.089-2.349-.642-.57-1.491-.903-2.547-.999V.888H3.86v1.458c-1.128.108-2.04.489-2.736 1.143C.428 4.143.08 4.968.08 5.964c0 .792.177 1.416.531 1.872.354.456.783.789 1.287.999.504.21 1.158.417 1.962.621v3.96c-.492-.084-.87-.279-1.134-.585-.264-.306-.414-.693-.45-1.161H.08c0 .984.348 1.776 1.044 2.376.696.6 1.608.954 2.736 1.062v1.458h1.17zM3.86 7.674c-.54-.168-.957-.39-1.251-.666-.294-.276-.441-.66-.441-1.152 0-.528.153-.948.459-1.26.306-.312.717-.498 1.233-.558v3.636zm1.17 5.742V9.762c.54.168.957.387 1.251.657.294.27.441.645.441 1.125s-.15.891-.45 1.233c-.3.342-.714.555-1.242.639z" fill="#6D5ED3" fill-rule="nonzero"/>
</svg>
