<svg xmlns="http://www.w3.org/2000/svg" width="24" height="24" viewBox="0 0 24 24">
    <g fill="none" fill-rule="evenodd">
        <g>
            <g>
                <g>
                    <g transform="translate(-301.000000, -403.000000) translate(280.000000, 256.000000) translate(0.000000, 117.000000) translate(21.000000, 30.000000)">
                        <circle cx="12" cy="12" r="11.5" fill="#F0EEFA" stroke="#6D5ED3"/>
                        <path fill="#6D5ED3" fill-rule="nonzero" d="M12.58 18v-1.11c.594-.037 1.103-.188 1.529-.453.425-.266.747-.597.966-.995.22-.397.33-.816.33-1.255 0-.594-.13-1.065-.391-1.412-.26-.348-.58-.601-.96-.761-.38-.16-.871-.318-1.475-.473V8.194c.394.083.709.254.947.515.237.26.38.55.425.87h1.33c-.073-.694-.347-1.259-.823-1.693-.475-.435-1.101-.684-1.879-.748V6h-.74v1.138c-.86.055-1.548.325-2.064.81C9.258 8.431 9 9.044 9 9.784c0 .585.133 1.052.398 1.399s.585.603.96.768c.375.165.868.325 1.48.48v3.429c-.456-.074-.81-.252-1.062-.535-.251-.284-.395-.617-.432-1.001h-1.33c.009.713.274 1.3.795 1.762.521.462 1.198.729 2.03.802V18h.74zm-.741-6.665c-.512-.156-.9-.352-1.166-.59-.265-.238-.398-.58-.398-1.028 0-.467.142-.83.426-1.09.283-.261.662-.414 1.138-.46v3.168zm.74 4.54v-3.237c.503.146.892.34 1.166.583.274.242.412.587.412 1.035 0 .42-.14.782-.419 1.083-.279.302-.665.48-1.159.535z"/>
                    </g>
                </g>
            </g>
        </g>
    </g>
</svg>
