<svg width="74" height="90" xmlns="http://www.w3.org/2000/svg">
    <g fill="none" fill-rule="evenodd">
        <circle fill="#F0EEFA" cx="37" cy="44" r="36"/>
        <g fill-rule="nonzero">
            <path d="M36.592 13.74h10.486l-3.971 3.979a2.637 2.637 0 0 0 3.732 3.726l8.458-8.473a2.64 2.64 0 0 0-.06-3.786L46.838.774A2.636 2.636 0 1 0 43.107 4.5l3.96 3.967H36.478c-27.874 0-45.567 30.336-31.59 54.72a2.637 2.637 0 1 0 4.575-2.622c-12.01-20.95 3.325-46.944 27.129-46.824zM68.141 26.812a2.637 2.637 0 0 0-4.574 2.623c11.938 20.826-3.13 46.824-27.052 46.824H25.95l3.971-3.978a2.637 2.637 0 1 0-3.732-3.726l-8.458 8.473a2.638 2.638 0 0 0 .064 3.79l8.394 8.408a2.637 2.637 0 0 0 3.733-3.726l-3.96-3.967h10.585c27.889 0 45.568-30.342 31.593-54.72z" fill="#000"/>
            <path d="M33.878 37.09h10.547a2.637 2.637 0 0 0 0-5.274h-5.273V29.18a2.637 2.637 0 0 0-5.274 0v2.636c-4.362 0-7.91 3.549-7.91 7.91 0 4.362 3.548 7.91 7.91 7.91h5.273a2.636 2.636 0 1 1 0 5.274H28.605a2.636 2.636 0 1 0 0 5.274h5.273v2.636a2.637 2.637 0 0 0 5.274 0v-2.636a7.906 7.906 0 0 0 7.91-7.91c0-4.362-3.55-7.91-7.911-7.91h-5.273a2.64 2.64 0 0 1-2.637-2.637 2.64 2.64 0 0 1 2.637-2.637z" fill="#6D5ED3"/>
        </g>
    </g>
</svg>
