<svg xmlns="http://www.w3.org/2000/svg" width="24" height="24" viewBox="0 0 24 24">
    <g fill="none" fill-rule="evenodd">
        <g>
            <g>
                <path d="M0 0L24 0 24 24 0 24z" transform="translate(-1194.000000, -263.000000) translate(280.000000, 233.000000) translate(914.000000, 30.000000)"/>
                <path fill="#6d5ed3" fill-rule="nonzero" d="M6.414 16L16.556 5.858l-1.414-1.414L5 14.586V16h1.414zm.829 2H3v-4.243L14.435 2.322c.39-.39 1.024-.39 1.414 0l2.829 2.829c.39.39.39 1.024 0 1.414L7.243 18zM3 20h18v2H3v-2z" transform="translate(-1194.000000, -263.000000) translate(280.000000, 233.000000) translate(914.000000, 30.000000)"/>
            </g>
        </g>
    </g>
</svg>
