<svg xmlns="http://www.w3.org/2000/svg" width="99" height="90" viewBox="0 0 99 90">
    <g fill="none" fill-rule="evenodd">
        <g>
            <g>
                <g transform="translate(-760.000000, -426.000000) translate(684.000000, 426.000000) translate(76.000000, 0.000000)">
                    <path fill="#F0EEFA" d="M62.126 73.515H8.662c-3.716 0-6.729-3.012-6.729-6.728V9.425c0-4.112 3.013-7.447 6.729-7.447h13.766c3.631 0 6.574 3.258 6.574 7.277v6.334h51.275c3.716 0 6.728 3.013 6.728 6.729V53.75"/>
                    <circle cx="79.271" cy="69.56" r="17.594" fill="#6D5ED3"/>
                    <path fill="#FFF" fill-rule="nonzero" d="M86.916 67.626h-5.711v-5.802c0-1.067-.866-1.933-1.934-1.933-1.067 0-1.933.866-1.933 1.933v5.802h-5.71c-1.068 0-1.934.866-1.934 1.934s.866 1.933 1.933 1.933h5.711v5.802c0 1.068.866 1.934 1.933 1.934 1.068 0 1.934-.866 1.934-1.934v-5.802h5.71c1.068 0 1.934-.865 1.934-1.933s-.866-1.934-1.933-1.934z" transform="translate(79.271465, 69.559937) rotate(-315.000000) translate(-79.271465, -69.559937)"/>
                    <path fill="#000" fill-rule="nonzero" d="M93.08 55.752c-1.264-1.264-2.659-2.316-4.141-3.16V22.318c0-4.776-3.886-8.662-8.662-8.662H30.935v-4.4c0-5.08-3.816-9.212-8.507-9.212H8.662C3.886.044 0 4.253 0 9.425v18.59c0 1.068.866 1.934 1.933 1.934 1.068 0 1.934-.866 1.934-1.934V9.425c0-3.04 2.15-5.514 4.795-5.514h13.766c2.559 0 4.64 2.397 4.64 5.344v6.334c0 1.068.866 1.934 1.934 1.934h51.275c2.644 0 4.795 2.15 4.795 4.795v28.6c-6.704-2.074-14.312-.463-19.609 4.834-3.688 3.688-5.72 8.592-5.72 13.808 0 .68.036 1.355.104 2.022H8.662c-2.644 0-4.795-2.15-4.795-4.795v-19.56c0-1.068-.866-1.934-1.934-1.934C.866 45.293 0 46.16 0 47.227v19.56c0 4.776 3.886 8.662 8.662 8.662h51.982c.931 2.956 2.565 5.665 4.82 7.92 3.688 3.688 8.591 5.719 13.807 5.719 5.217 0 10.12-2.031 13.809-5.72 3.688-3.688 5.72-8.592 5.72-13.808 0-5.216-2.032-10.12-5.72-13.808zm-2.735 24.882c-2.958 2.958-6.89 4.587-11.074 4.587-4.183 0-8.116-1.63-11.074-4.587-2.957-2.958-4.586-6.89-4.586-11.074 0-4.183 1.629-8.116 4.586-11.074 3.054-3.053 7.064-4.58 11.074-4.58s8.021 1.527 11.074 4.58c2.958 2.958 4.587 6.89 4.587 11.074 0 4.183-1.629 8.116-4.587 11.074z"/>
                    <circle cx="1.933" cy="37.562" r="1.933" fill="#000" fill-rule="nonzero"/>
                </g>
            </g>
        </g>
    </g>
</svg>
