<svg width="70" height="70" viewBox="0 0 70 70" fill="none" xmlns="http://www.w3.org/2000/svg">
    <path d="M16.406 35c0-3.468.956-6.717 2.616-9.499v-11.8h-11.8C2.539 19.783 0 27.196 0 35c0 7.803 2.539 15.216 7.222 21.299h11.8v-11.8a18.48 18.48 0 0 1-2.616-9.5z" fill="#FBBD00"/>
    <path d="m35 53.594-8.203 8.203L35 70c7.804 0 15.216-2.539 21.299-7.222V50.991H44.51A18.591 18.591 0 0 1 35 53.594z" fill="#0F9D58"/>
    <path d="m19.022 44.498-11.8 11.8a35.565 35.565 0 0 0 3.03 3.45C16.861 66.36 25.65 70 35 70V53.593c-6.785 0-12.731-3.653-15.978-9.095z" fill="#31AA52"/>
    <path d="M70 35c0-2.13-.193-4.263-.573-6.341l-.308-1.681H35v16.406h16.605a18.51 18.51 0 0 1-7.094 7.606L56.3 62.778a35.565 35.565 0 0 0 3.45-3.03C66.359 53.139 70 44.349 70 35z" fill="#3C79E6"/>
    <path d="m48.148 21.852 1.45 1.45 11.6-11.6-1.45-1.45C53.139 3.64 44.35 0 35 0l-8.203 8.203L35 16.406c4.966 0 9.636 1.934 13.148 5.446z" fill="#CF2D48"/>
    <path d="M35 16.406V0C25.65 0 16.862 3.64 10.25 10.251a35.518 35.518 0 0 0-3.03 3.45l11.8 11.8C22.27 20.06 28.216 16.406 35 16.406z" fill="#EB4132"/>
</svg>
