<svg width="32" height="32" xmlns="http://www.w3.org/2000/svg">
    <g fill="none" fill-rule="evenodd">
        <path d="M0 0h31.66v31.66H0z"/>
        <g transform="translate(2.667 2.667)" fill-rule="nonzero">
            <path d="M24.167 0H2.5A2.5 2.5 0 0 0 0 2.5v21.667a2.5 2.5 0 0 0 2.5 2.5h21.667a2.5 2.5 0 0 0 2.5-2.5V2.5a2.5 2.5 0 0 0-2.5-2.5zM25 24.167c0 .46-.373.833-.833.833H2.5a.833.833 0 0 1-.833-.833V2.5c0-.46.373-.833.833-.833h21.667c.46 0 .833.373.833.833v21.667z" fill="#383838"/>
            <path d="M18.092 14.408a.833.833 0 0 0-1.175 0L15 16.325l-3.575-3.575a.833.833 0 0 0-1.175 0l-5.833 5.833A.833.833 0 0 0 5 20h16.667a.833.833 0 0 0 .591-1.425l-4.166-4.167z" fill="#6D5ED3"/>
            <circle fill="#6D5ED3" cx="15.833" cy="9.167" r="2.5"/>
        </g>
    </g>
</svg>
