<svg xmlns="http://www.w3.org/2000/svg" width="24" height="24" viewBox="0 0 24 24">
    <g fill="none" fill-rule="evenodd">
        <g>
            <g>
                <g>
                    <path d="M0 0L24 0 24 24 0 24z" transform="translate(-997.000000, -343.000000) translate(981.000000, 75.000000) translate(16.000000, 268.000000)"/>
                    <g>
                        <path d="M0 0L24 0 24 24 0 24z" transform="translate(-997.000000, -343.000000) translate(981.000000, 75.000000) translate(16.000000, 268.000000)"/>
                        <g fill="#24262A" fill-rule="nonzero" stroke="#1B1D21" stroke-width=".5">
                            <path d="M5.44 13.69c-.05 0-.103-.01-.154-.03C2.582 12.577.833 9.995.833 7.082.833 3.178 4.011 0 7.917 0 11.822 0 15 3.178 15 7.083c0 2.341-1.158 4.534-3.098 5.867-.19.132-.449.083-.579-.107-.13-.19-.082-.45.108-.58 1.712-1.176 2.736-3.114 2.736-5.18 0-3.446-2.804-6.25-6.25-6.25-3.447 0-6.25 2.804-6.25 6.25 0 2.57 1.542 4.847 3.929 5.803.214.086.317.328.231.54-.064.164-.22.263-.386.263z" transform="translate(-997.000000, -343.000000) translate(981.000000, 75.000000) translate(16.000000, 268.000000) translate(2.000000, 3.000000)"/>
                            <path d="M8.333 10H6.25c-.23 0-.417-.187-.417-.417 0-.23.187-.416.417-.416h2.083c.46 0 .834-.374.834-.834 0-.459-.374-.833-.834-.833H7.5c-.92 0-1.667-.747-1.667-1.667 0-.919.748-1.666 1.667-1.666h2.083c.23 0 .417.186.417.416 0 .23-.187.417-.417.417H7.5c-.46 0-.833.374-.833.833 0 .46.373.834.833.834h.833c.92 0 1.667.747 1.667 1.666C10 9.253 9.252 10 8.333 10z" transform="translate(-997.000000, -343.000000) translate(981.000000, 75.000000) translate(16.000000, 268.000000) translate(2.000000, 3.000000)"/>
                            <path d="M7.917 5c-.23 0-.417-.187-.417-.417V2.917c0-.23.187-.417.417-.417.23 0 .416.187.416.417v1.666c0 .23-.186.417-.416.417zM7.917 11.667c-.23 0-.417-.187-.417-.417V9.583c0-.23.187-.416.417-.416.23 0 .416.186.416.416v1.667c0 .23-.186.417-.416.417zM.417 19.167c-.138 0-.272-.069-.352-.193-.123-.194-.066-.451.128-.575l9.166-5.833c.165-.105.38-.082.518.056l3.039 3.039 6.372-6.372c.162-.162.426-.162.589 0 .162.163.162.427 0 .59l-6.667 6.666c-.163.162-.427.162-.59 0l-3.097-3.098-8.882 5.655c-.07.044-.147.065-.224.065z" transform="translate(-997.000000, -343.000000) translate(981.000000, 75.000000) translate(16.000000, 268.000000) translate(2.000000, 3.000000)"/>
                            <path d="M19.583 13.333c-.23 0-.416-.186-.416-.416V10H16.25c-.23 0-.417-.187-.417-.417 0-.23.187-.416.417-.416h3.333c.23 0 .417.186.417.416v3.334c0 .23-.187.416-.417.416z" transform="translate(-997.000000, -343.000000) translate(981.000000, 75.000000) translate(16.000000, 268.000000) translate(2.000000, 3.000000)"/>
                        </g>
                    </g>
                </g>
            </g>
        </g>
    </g>
</svg>
