<svg xmlns="http://www.w3.org/2000/svg" width="80" height="92" viewBox="0 0 80 92">
    <g fill="none" fill-rule="evenodd">
        <g>
            <g>
                <g transform="translate(-768.000000, -425.000000) translate(684.000000, 426.000000) translate(85.000000, 0.000000)">
                    <path fill="#F0EEFA" d="M34.688 77.711L28.311 81.173 21.129 75.989 15.418 81.173 8.443 77.711 2.169 81.173 2.169 8.013 4.068 2.23 18.363 2.012 67.303 1.965 72.417 8.013 72.417 29.26 56.92 29.26 55.696 42.188 56.92 46.546 68.099 51.641 76.86 64.192 74.135 78.581 62.178 87.805 51.937 88.531 42.744 84.267z"/>
                    <circle cx="56.25" cy="67.5" r="22.5" fill="#6D5ED3"/>
                    <path fill="#A092E7" d="M65.311 2.358c-.645-.229-1.324-.346-2.008-.346-3.452 0-6.26 2.922-6.26 6.514v19.761h4.017V8.527c0-2.862 1.782-5.296 4.251-6.169z"/>
                    <path fill="#D4E1F4" fill-rule="nonzero" d="M13.163 76.267c-.44-.37-1.081-.37-1.52 0l-1.268 1.055 4.628 3.851 2.028-1.688-3.868-3.218z"/>
                    <path fill="#A092E7" d="M6.225 9.736c0-4.266 3.336-7.737 7.437-7.737H9.605c-4.1 0-7.436 3.47-7.436 7.737v70.24L6.225 76.6V9.736z"/>
                    <path fill="#D4E1F4" fill-rule="nonzero" d="M26.473 76.267c-.439-.37-1.081-.37-1.52 0l-1.268 1.055 4.626 3.851 2.028-1.688-3.866-3.218z"/>
                    <path fill="#000" fill-rule="nonzero" stroke="#000" stroke-width="1.5" d="M.622 82.976c.38.182.831.131 1.16-.132L7.94 77.92l6.156 4.924c.401.32.971.32 1.372 0l6.156-4.924 6.155 4.924c.4.32.97.32 1.372 0l6.84-5.473c.016-.012.03-.024.044-.037l.973-.863-1.457-1.642-.952.846-6.133 4.906-6.154-4.924c-.401-.321-.971-.321-1.372 0l-6.156 4.924-6.158-4.924c-.401-.321-.97-.321-1.372 0l-5.058 4.046V9.993C2.2 5.687 5.688 2.2 9.992 2.194h47.756c-1.921 1.676-3.023 4.101-3.023 6.65v38.587h2.195V30.358h14.4c.605 0 1.097-.49 1.097-1.098V8.846C72.41 4.127 68.707.242 63.995.01V0H9.992C4.477.006.006 4.477 0 9.992v71.994c0 .423.242.807.622.99h0zm69.6-74.13v19.317H56.92V8.846c.02-3.66 2.991-6.616 6.65-6.616 3.66 0 6.632 2.956 6.652 6.616z"/>
                    <path fill="#000" fill-rule="nonzero" stroke="#000" stroke-width="1.5" d="M8.199 37.22h.489c.606 0 1.097-.492 1.097-1.098 0-.606-.49-1.098-1.097-1.098h-.49c-.605 0-1.097.492-1.097 1.098 0 .606.492 1.097 1.098 1.097zM17.266 35.024H13.57c-.606 0-1.097.492-1.097 1.098 0 .606.491 1.097 1.097 1.097h3.696c.607 0 1.097-.491 1.097-1.097s-.49-1.098-1.097-1.098zM49.819 36.122c0-.606-.492-1.098-1.098-1.098H22.227c-.607 0-1.098.492-1.098 1.098 0 .606.491 1.097 1.098 1.097h26.494c.606 0 1.098-.491 1.098-1.097zM8.199 26.795h.489c.606 0 1.097-.491 1.097-1.097S9.295 24.6 8.688 24.6h-.49c-.605 0-1.097.492-1.097 1.098 0 .606.492 1.097 1.098 1.097zM17.266 24.6H13.57c-.606 0-1.097.492-1.097 1.098 0 .606.491 1.097 1.097 1.097h3.696c.607 0 1.097-.491 1.097-1.097s-.49-1.098-1.097-1.098zM48.721 24.6H22.227c-.607 0-1.098.492-1.098 1.098 0 .606.491 1.097 1.098 1.097h26.494c.606 0 1.098-.491 1.098-1.097s-.492-1.098-1.098-1.098zM8.199 16.372h.489c.606 0 1.097-.492 1.097-1.098 0-.606-.49-1.097-1.097-1.097h-.49c-.605 0-1.097.491-1.097 1.097s.492 1.098 1.098 1.098zM17.266 14.177H13.57c-.606 0-1.097.491-1.097 1.097s.491 1.098 1.097 1.098h3.696c.607 0 1.097-.492 1.097-1.098 0-.606-.49-1.097-1.097-1.097zM48.721 14.177H22.227c-.607 0-1.098.491-1.098 1.097s.491 1.098 1.098 1.098h26.494c.606 0 1.098-.492 1.098-1.098 0-.606-.492-1.097-1.098-1.097zM8.199 47.643h.489c.606 0 1.097-.491 1.097-1.097 0-.607-.49-1.098-1.097-1.098h-.49c-.605 0-1.097.49-1.097 1.098 0 .606.492 1.097 1.098 1.097zM18.363 46.546c0-.607-.49-1.098-1.097-1.098H13.57c-.606 0-1.097.49-1.097 1.098 0 .606.491 1.097 1.097 1.097h3.696c.607 0 1.097-.491 1.097-1.097h0zM39.395 46.546c0-.607-.492-1.098-1.098-1.098h-16.07c-.607 0-1.098.49-1.098 1.098 0 .606.491 1.097 1.098 1.097h16.07c.606 0 1.098-.491 1.098-1.097h0zM11.307 59.003c1.11 0 2.01.9 2.01 2.01 0 .607.493 1.098 1.098 1.098.606 0 1.098-.491 1.098-1.098-.003-1.898-1.275-3.561-3.108-4.06v-.755c0-.607-.491-1.098-1.098-1.098-.606 0-1.097.491-1.097 1.098v.756c-2.036.55-3.35 2.523-3.072 4.613.278 2.09 2.06 3.652 4.17 3.652 1.11-.006 2.014.889 2.02 1.999.006 1.11-.888 2.015-1.999 2.021l-.022-.001-.022.001c-1.101-.013-1.987-.908-1.989-2.01 0-.606-.491-1.097-1.097-1.097S7.1 66.623 7.1 67.23c.002 1.898 1.276 3.561 3.109 4.06v.897c0 .606.49 1.097 1.097 1.097.606 0 1.098-.49 1.098-1.097v-.898c2.035-.55 3.348-2.523 3.07-4.613-.277-2.09-2.06-3.652-4.168-3.652-1.11 0-2.01-.9-2.01-2.01 0-1.111.9-2.01 2.01-2.01h0zM21.306 66.444c-.606 0-1.098.491-1.098 1.097s.492 1.098 1.098 1.098h9.278c.606 0 1.097-.492 1.097-1.098 0-.606-.491-1.097-1.097-1.097h-9.278zM55.696 90c12.12 0 21.945-9.825 21.945-21.946 0-12.12-9.825-21.944-21.945-21.944-12.12 0-21.945 9.825-21.945 21.944C33.764 80.17 43.58 89.986 55.696 90h0zm0-41.695c10.908 0 19.75 8.842 19.75 19.75 0 10.907-8.842 19.75-19.75 19.75s-19.75-8.843-19.75-19.75c.013-10.903 8.847-19.738 19.75-19.75h0z"/>
                    <path fill="#FFF" fill-rule="nonzero" d="M63.051 66.375h-5.674v-5.766c0-1.061-.86-1.922-1.922-1.922-1.061 0-1.921.86-1.921 1.922v5.766h-5.675c-1.061 0-1.922.86-1.922 1.921s.86 1.921 1.922 1.921h5.675v5.766c0 1.061.86 1.922 1.921 1.922s1.922-.86 1.922-1.922v-5.766h5.674c1.062 0 1.922-.86 1.922-1.92 0-1.062-.86-1.922-1.922-1.922z" transform="translate(55.455180, 68.296061) rotate(-315.000000) translate(-55.455180, -68.296061)"/>
                </g>
            </g>
        </g>
    </g>
</svg>
