<svg xmlns="http://www.w3.org/2000/svg" width="24" height="24" viewBox="0 0 24 24">
    <g fill="none" fill-rule="evenodd">
        <g>
            <g>
                <g>
                    <path d="M0 0L24 0 24 24 0 24z" transform="translate(-997.000000, -103.000000) translate(981.000000, 75.000000) translate(16.000000, 28.000000)"/>
                    <g fill-rule="nonzero">
                        <path fill="#1B1D21" d="M7.918 6.904h-.836c-.37 0-.67-.3-.67-.67 0-.369.3-.669.67-.669h1.673c.324 0 .586-.262.586-.586 0-.323-.262-.586-.586-.586h-.67v-.669c0-.324-.261-.586-.585-.586-.324 0-.586.262-.586.586v.677c-.937.085-1.674.875-1.674 1.833 0 1.016.826 1.842 1.842 1.842h.836c.37 0 .67.3.67.669 0 .369-.3.67-.67.67H6.245c-.324 0-.586.261-.586.585 0 .324.262.586.586.586h.669v.67c0 .323.262.585.586.585.324 0 .586-.262.586-.586v-.677c.937-.085 1.674-.874 1.674-1.833 0-1.015-.826-1.841-1.842-1.841zM10.638 13.807H4.362c-.324 0-.586.263-.586.586 0 .324.262.586.586.586h6.276c.324 0 .586-.262.586-.586 0-.323-.262-.586-.586-.586z" transform="translate(-997.000000, -103.000000) translate(981.000000, 75.000000) translate(16.000000, 28.000000) translate(4.000000, 2.000000)"/>
                        <path fill="#24262A" stroke="#1B1D21" stroke-width=".2" d="M14.404 0H.596C.273 0 .01.262.01.586v17.102c0 .156.062.305.172.414l1.726 1.726c.229.23.6.23.829 0l1.311-1.311 1.312 1.311c.11.11.259.172.414.172.156 0 .305-.062.414-.172L7.5 18.517l1.312 1.311c.11.11.259.172.414.172.155 0 .304-.062.414-.172l1.312-1.311 1.311 1.311c.115.115.265.172.415.172.15 0 .3-.057.414-.172l1.726-1.726c.11-.11.172-.258.172-.414V.586c0-.324-.263-.586-.586-.586zm-1.726 18.585l-1.312-1.311c-.11-.11-.259-.172-.414-.172-.156 0-.305.062-.415.172l-1.311 1.311-1.312-1.311c-.229-.229-.6-.229-.828 0l-1.312 1.311-1.312-1.311c-.11-.11-.258-.172-.414-.172-.155 0-.304.062-.414.172l-1.312 1.311-1.14-1.14V1.172h12.636v16.273h0l-1.14 1.14z" transform="translate(-997.000000, -103.000000) translate(981.000000, 75.000000) translate(16.000000, 28.000000) translate(4.000000, 2.000000)"/>
                    </g>
                </g>
            </g>
        </g>
    </g>
</svg>
