<svg width="24" height="24" xmlns="http://www.w3.org/2000/svg">
    <g fill="none" fill-rule="evenodd">
        <path d="M0 0h24v24H0z"/>
        <g fill="#383838" fill-rule="nonzero" stroke="#383838" stroke-width=".2">
            <path d="M4.406 8.555V5.109c0-.387.316-.703.703-.703h3.34A.703.703 0 1 0 8.45 3H5.11C3.946 3 3 3.946 3 5.11v3.445a.703.703 0 1 0 1.406 0zM15.628 8.171a.703.703 0 0 0-.998-.99l-1.962 1.973v-5.45a.703.703 0 1 0-1.406 0V9.1l-1.93-1.922a.703.703 0 1 0-.992.996l2.161 2.153c.399.399.929.618 1.492.618s1.093-.22 1.493-.619l2.142-2.155zM14.813 3.703c0 .388.314.703.703.703h3.375c.387 0 .703.316.703.703v3.446a.703.703 0 1 0 1.406 0V5.109C21 3.946 20.054 3 18.89 3h-3.374a.703.703 0 0 0-.704.703zM12.668 20.297v-5.451l1.962 1.974a.703.703 0 1 0 .998-.991l-2.143-2.156a2.096 2.096 0 0 0-1.492-.618c-.563 0-1.093.22-1.49.617L8.34 15.826a.7.7 0 0 0-.002.994c.274.276.72.276.994.002l1.93-1.922v5.397a.703.703 0 1 0 1.406 0zM21 18.89v-3.445a.703.703 0 1 0-1.406 0v3.446a.704.704 0 0 1-.703.703h-3.375a.703.703 0 1 0 0 1.406h3.375C20.054 21 21 20.054 21 18.89zM9.152 20.297a.703.703 0 0 0-.703-.703H5.11a.704.704 0 0 1-.703-.703v-3.446a.703.703 0 1 0-1.406 0v3.446C3 20.054 3.946 21 5.11 21h3.34a.703.703 0 0 0 .702-.703z"/>
        </g>
    </g>
</svg>
