<svg xmlns="http://www.w3.org/2000/svg" width="24" height="24" viewBox="0 0 24 24">
    <g fill="none" fill-rule="evenodd">
        <g>
            <g>
                <path d="M0 0L24 0 24 24 0 24z" transform="translate(-1282.000000, -263.000000) translate(280.000000, 233.000000) translate(1002.000000, 30.000000)"/>
                <g fill="#414141" fill-rule="nonzero" stroke="#414141" stroke-width=".6" transform="translate(-1282.000000, -263.000000) translate(280.000000, 233.000000) translate(1002.000000, 30.000000) translate(2.000000, 2.000000)">
                    <path d="M10 0C4.477 0 0 4.477 0 10s4.477 10 10 10 10-4.477 10-10S15.523 0 10 0zm0 18.75c-4.832 0-8.75-3.918-8.75-8.75S5.168 1.25 10 1.25s8.75 3.918 8.75 8.75-3.918 8.75-8.75 8.75z"/>
                    <circle cx="10" cy="10" r="1.25"/>
                    <circle cx="14.375" cy="10" r="1.25"/>
                    <circle cx="5.625" cy="10" r="1.25"/>
                </g>
            </g>
        </g>
    </g>
</svg>
