<svg width="64" height="64" xmlns="http://www.w3.org/2000/svg">
    <g fill="none" fill-rule="evenodd">
        <path d="M0 0h64v64H0z"/>
        <path d="M32 64C14.326 64 0 49.674 0 32S14.326 0 32 0s32 14.326 32 32-14.326 32-32 32z" fill="#F4614E"/>
        <g fill="#FFF" fill-rule="nonzero">
            <path d="M27.81 19H22.57c-.866 0-1.571.734-1.571 1.637v22.917c0 .902.705 1.636 1.571 1.636h5.239c.866 0 1.571-.734 1.571-1.636V20.637c0-.903-.705-1.637-1.572-1.637zM41.429 19H36.19c-.866 0-1.571.734-1.571 1.637v22.917c0 .902.705 1.636 1.571 1.636h5.239c.866 0 1.571-.734 1.571-1.636V20.637c0-.903-.705-1.637-1.571-1.637z"/>
        </g>
    </g>
</svg>
