<svg width="20" height="20" xmlns="http://www.w3.org/2000/svg">
    <g fill="none" fill-rule="evenodd">
        <path d="M0 0h20v20H0z"/>
        <path d="M14.583 17.5a2.917 2.917 0 1 1 0-5.833 2.917 2.917 0 0 1 0 5.833zm0-1.667a1.25 1.25 0 1 0 0-2.5 1.25 1.25 0 0 0 0 2.5zm-9.166-7.5a2.917 2.917 0 1 1 0-5.833 2.917 2.917 0 0 1 0 5.833zm0-1.666a1.25 1.25 0 1 0 0-2.5 1.25 1.25 0 0 0 0 2.5zm10.476-3.738 1.178 1.179L4.108 17.07 2.93 15.892 15.892 2.93z" fill="#7D7E82" fill-rule="nonzero"/>
    </g>
</svg>
