<svg width="16" height="16" xmlns="http://www.w3.org/2000/svg">
    <path d="M3.88 7.08c.893 0 1.623-.28 2.19-.84.567-.56.85-1.327.85-2.3 0-.973-.283-1.737-.85-2.29-.567-.553-1.297-.83-2.19-.83s-1.623.277-2.19.83c-.567.553-.85 1.317-.85 2.29 0 .973.283 1.74.85 2.3.567.56 1.297.84 2.19.84zM5.06 15l7.98-13.92H10.8L2.82 15h2.24zM3.88 5.7c-.84 0-1.26-.587-1.26-1.76 0-1.16.42-1.74 1.26-1.74.84 0 1.26.58 1.26 1.74 0 .6-.11 1.043-.33 1.33-.22.287-.53.43-.93.43zm8.14 9.56c.88 0 1.603-.28 2.17-.84.567-.56.85-1.327.85-2.3 0-.973-.283-1.737-.85-2.29-.567-.553-1.29-.83-2.17-.83-.893 0-1.623.277-2.19.83-.567.553-.85 1.317-.85 2.29 0 .973.283 1.74.85 2.3.567.56 1.297.84 2.19.84zm-.02-1.4c-.84 0-1.26-.58-1.26-1.74 0-1.16.42-1.74 1.26-1.74.84 0 1.26.58 1.26 1.74 0 1.16-.42 1.74-1.26 1.74z" fill="#6D5ED3" fill-rule="nonzero"/>
</svg>
