<svg xmlns="http://www.w3.org/2000/svg" width="24" height="24" viewBox="0 0 24 24">
    <g fill="none" fill-rule="evenodd">
        <g>
            <g>
                <g>
                    <g>
                        <path d="M0 0L24 0 24 24 0 24z" transform="translate(-1138.000000, -403.000000) translate(280.000000, 256.000000) translate(0.000000, 117.000000) translate(858.000000, 30.000000)"/>
                        <path fill="#6D5ED3" fill-rule="nonzero" d="M19.376 12.416L8.777 19.482c-.153.102-.35.112-.513.025C8.102 19.42 8 19.25 8 19.066V4.934c0-.184.102-.354.264-.44.162-.088.36-.078.513.024l10.599 7.066c.14.093.223.249.223.416 0 .167-.084.323-.223.416z" transform="translate(-1138.000000, -403.000000) translate(280.000000, 256.000000) translate(0.000000, 117.000000) translate(858.000000, 30.000000)"/>
                    </g>
                </g>
            </g>
        </g>
    </g>
</svg>
