<svg xmlns="http://www.w3.org/2000/svg" width="24" height="24" viewBox="0 0 24 24">
    <g fill="none" fill-rule="evenodd">
        <g>
            <g>
                <g>
                    <path d="M0 0L24 0 24 24 0 24z" transform="translate(-997.000000, -143.000000) translate(981.000000, 75.000000) translate(16.000000, 68.000000)"/>
                    <g fill="#24262A" fill-rule="nonzero" stroke="#1B1D21" stroke-width=".3">
                        <path d="M17.744.068c-.067-.041-.145-.063-.223-.063H4.788c-1.094 0-1.985.881-1.985 1.962l-.075 10.964h-2.3c-.237 0-.428.192-.428.428v1.975c.002 1.45 1.177 2.626 2.627 2.628.03 0 .06-.003.088-.01h10.623c.063.005.127.008.192.008 1.473-.002 2.665-1.197 2.666-2.67V8.88h2.882c.236 0 .427-.19.427-.427V2.106C19.5 1.086 18.753.221 17.744.068h0zM.855 15.334v-1.547h10.008v1.503c0 .67.252 1.315.706 1.808h-9c-.02 0-.04.001-.06.004-.93-.063-1.653-.835-1.654-1.768h0zM15.341 2.106V15.29c-.001.478-.19.936-.528 1.274-.324.332-.763.525-1.225.54-.023-.004-.047-.006-.07-.006h-.15c-.932-.092-1.644-.872-1.65-1.808V13.36c0-.236-.191-.428-.427-.428H3.584l.074-10.96C3.665 1.35 4.17.854 4.788.86h10.978c-.276.357-.425.795-.425 1.246zm3.31 5.92h-2.455v-5.92c.011-.67.557-1.206 1.227-1.206s1.216.536 1.227 1.206v5.92z" transform="translate(-997.000000, -143.000000) translate(981.000000, 75.000000) translate(16.000000, 68.000000) translate(2.000000, 3.000000)"/>
                        <path d="M5.49 4.636h4.049c.236 0 .427-.19.427-.427 0-.236-.191-.428-.427-.428h-4.05c-.236 0-.427.192-.427.428s.191.427.427.427zM13.043 6.838H5.489c-.236 0-.427.192-.427.428s.191.427.427.427h7.554c.236 0 .427-.191.427-.427s-.191-.428-.427-.428zM13.043 9.895H5.489c-.236 0-.427.192-.427.428s.191.427.427.427h7.554c.236 0 .427-.191.427-.427s-.191-.428-.427-.428z" transform="translate(-997.000000, -143.000000) translate(981.000000, 75.000000) translate(16.000000, 68.000000) translate(2.000000, 3.000000)"/>
                    </g>
                </g>
            </g>
        </g>
    </g>
</svg>
