<svg width="83" height="100" xmlns="http://www.w3.org/2000/svg">
    <g fill="none" fill-rule="evenodd">
        <path fill="#6D5ED3" opacity=".1" d="m14.73 98.482 6.612-6.612 6.61 6.612 6.613-6.612 6.611 6.612 6.612-6.612 6.611 6.612 6.612-6.612 6.612 6.612 6.611-6.612 6.612 6.612V1.518H1.506v96.964l6.612-6.612z"/>
        <g fill-rule="nonzero">
            <path d="M21.555 78.2v1.566h-2.227v-1.64a10.046 10.046 0 0 1-5.707-2.621l1.765-2.18a8.384 8.384 0 0 0 3.942 2.106v-4.776c-3.012-.784-5.042-1.86-5.042-4.75 0-2.646 2.032-4.679 5.042-5.043v-1.496h2.227v1.517a9.106 9.106 0 0 1 5.142 2.278l-1.664 2.253a8.01 8.01 0 0 0-3.478-1.837v4.605c3.355.757 5.584 1.91 5.584 4.898.004 2.816-2.033 4.874-5.584 5.12zm-2.227-10.607V63.53a2.313 2.313 0 0 0-1.96 2.106c-.002.98.635 1.494 1.96 1.958zm4.751 5.78c0-1.125-.783-1.64-2.521-2.155v4.36c1.662-.196 2.52-1.124 2.52-2.205h.001z" fill="#6D5ED3"/>
            <path d="M80.846 99.952a1.47 1.47 0 0 1-1.04-.43l-5.572-5.572-5.572 5.572a1.513 1.513 0 0 1-2.079 0l-5.575-5.572-5.571 5.572a1.513 1.513 0 0 1-2.08 0l-5.571-5.572-5.573 5.572a1.513 1.513 0 0 1-2.079 0l-5.57-5.572-5.57 5.572a1.513 1.513 0 0 1-2.08 0l-5.57-5.572-5.57 5.572a1.513 1.513 0 0 1-2.08 0L8.121 93.95 2.55 99.522a1.471 1.471 0 0 1-2.51-1.04V80.825a1.47 1.47 0 1 1 2.94 0v14.107l4.102-4.102a1.513 1.513 0 0 1 2.08 0l5.572 5.573 5.571-5.573a1.513 1.513 0 0 1 2.08 0l5.572 5.573 5.572-5.573a1.513 1.513 0 0 1 2.08 0l5.567 5.573 5.572-5.573a1.513 1.513 0 0 1 2.08 0l5.571 5.573 5.572-5.573a1.47 1.47 0 0 1 2.08 0l5.572 5.573 5.572-5.573a1.513 1.513 0 0 1 2.079 0l4.1 4.102v-60.87a1.47 1.47 0 0 1 2.942 0v64.42a1.47 1.47 0 0 1-1.47 1.47zM1.507 74.428a1.47 1.47 0 0 1-1.47-1.47V1.517c0-.812.658-1.47 1.47-1.47h79.338a1.47 1.47 0 0 1 1.471 1.47v12.886a1.47 1.47 0 0 1-2.941 0V2.99H2.977v69.968a1.47 1.47 0 0 1-1.47 1.47zM80.845 27.77a1.47 1.47 0 0 1-1.47-1.47V22.52a1.47 1.47 0 0 1 2.941 0v3.782a1.47 1.47 0 0 1-1.47 1.467z" fill="#000"/>
            <path d="M41.176 16.555H15.072a1.47 1.47 0 1 1 0-2.942h26.104a1.47 1.47 0 0 1 0 2.942zM67.28 29.198H15.072a1.47 1.47 0 0 1 0-2.94H67.28a1.47 1.47 0 1 1 0 2.94zM67.28 41.843H15.072a1.47 1.47 0 1 1 0-2.941H67.28a1.47 1.47 0 1 1 0 2.94zM67.28 79.775H51.513a1.47 1.47 0 0 1 0-2.941H67.28a1.47 1.47 0 1 1 0 2.94z" fill="#000"/>
        </g>
    </g>
</svg>
