<svg width="9" height="14" xmlns="http://www.w3.org/2000/svg">
    <path d="M8.84 3.172a.31.31 0 0 0-.23-.09h-1.7a3.442 3.442 0 0 0-.636-1.431h2.317a.31.31 0 0 0 .229-.09.31.31 0 0 0 .089-.228V.318a.31.31 0 0 0-.09-.229A.31.31 0 0 0 8.592 0H.318A.31.31 0 0 0 .09.09.31.31 0 0 0 0 .317v1.323c0 .086.031.16.094.223a.306.306 0 0 0 .224.095H1.76c1.399 0 2.287.374 2.665 1.123H.318a.31.31 0 0 0-.229.09A.31.31 0 0 0 0 3.4v1.015c0 .092.03.169.09.228.06.06.135.09.228.09h4.246c-.146.543-.486.958-1.02 1.243-.533.285-1.237.427-2.112.427H.318a.306.306 0 0 0-.224.095A.306.306 0 0 0 0 6.72v1.263c0 .087.03.16.09.22 1.272 1.351 2.923 3.244 4.951 5.677.06.08.143.119.249.119h1.939c.139 0 .235-.06.288-.179.066-.12.053-.232-.04-.338-1.935-2.373-3.457-4.15-4.564-5.33 1.127-.132 2.042-.497 2.745-1.093.702-.597 1.13-1.373 1.282-2.327h1.67a.31.31 0 0 0 .23-.09c.06-.06.089-.135.089-.228V3.4a.31.31 0 0 0-.09-.23z" fill="#414141" fill-rule="nonzero"/>
</svg>
