<svg xmlns="http://www.w3.org/2000/svg" width="40" height="48" viewBox="0 0 40 48">
    <g fill="none" fill-rule="evenodd">
        <g>
            <g>
                <g>
                    <g transform="translate(-382.000000, -633.000000) translate(358.000000, 603.000000) translate(24.000000, 27.000000) translate(0.000000, 3.000000)">
                        <path fill="#F0EEFA" d="M33.885 8.868V37.15c0 2.016-1.635 3.65-3.652 3.65H9.704c-2.017 0-3.652-1.634-3.652-3.65V4.404c0-1.59 1.017-2.942 2.434-3.443.382-.135.79-.208 1.218-.208h16.307c.554 0 1.096.126 1.586.363.403.193.77.462 1.082.795l1.955 2.092 2.238 2.342c.298.311.536.67.704 1.058.203.459.309.956.309 1.465z"/>
                        <path fill="#CFC8F2" d="M33.576 7.404h-3.974c-1.107 0-2.005-.898-2.005-2.006V1.116c.403.194.77.463 1.082.795l1.955 2.092 2.238 2.342c.298.311.535.67.704 1.059zM16.913 22.66c-1.283 0-2.322-1.04-2.322-2.322v-.511c0-1.437-1.165-2.603-2.602-2.603H9.946c-.806 0-1.46-.653-1.46-1.459V.961c-1.417.5-2.433 1.853-2.433 3.443V37.15c0 2.016 1.634 3.65 3.651 3.65h20.53c2.016 0 3.651-1.634 3.651-3.65V22.66H16.913z"/>
                        <path fill="#CFC8F2" d="M39.175 29.932v12.63c0 .765-.181 1.488-.503 2.127-.779 1.545-2.38 2.605-4.228 2.605H5.494c-2.613 0-4.732-2.118-4.732-4.731V22.368c0-1.438 1.165-2.602 2.603-2.602h8.623c1.438 0 2.603 1.164 2.603 2.602v.511c0 1.283 1.039 2.322 2.322 2.322h17.53c2.614 0 4.732 2.119 4.732 4.731z"/>
                        <path fill="#F0EEFA" d="M39.175 29.932v12.63c0 .765-.181 1.488-.503 2.127-.388.103-.795.158-1.216.158H8.506c-2.614 0-4.732-2.118-4.732-4.731V19.92c0-.053.002-.104.006-.155h8.208c1.438 0 2.603 1.164 2.603 2.602v.511c0 1.283 1.039 2.322 2.322 2.322h17.53c2.614 0 4.732 2.119 4.732 4.731z"/>
                        <circle cx="19.373" cy="36.217" r="7.103" fill="#6D5ED3"/>
                        <path fill="#000" fill-rule="nonzero" d="M15.81 30.902c.324-.217.411-.656.194-.98-.217-.323-.656-.41-.98-.193-4.435 2.974-4.61 9.367-.492 12.617 5.774 4.555 14.075-.712 12.456-7.855-.935-4.126-4.985-6.746-9.113-5.937-.383.075-.632.446-.557.828.075.383.446.632.828.557 3.371-.66 6.688 1.433 7.466 4.865.774 3.416-1.313 6.856-4.825 7.653-3.423.776-6.858-1.32-7.653-4.825-.592-2.61.491-5.265 2.677-6.73z"/>
                        <path fill="#FFF" fill-rule="nonzero" d="M19.29 39.677c-1.454 0-1.534-.971-2-.971-.28 0-.52.33-.52.601 0 .481.768 1.225 2.028 1.396v.594c0 .317.258.574.575.574.317 0 .575-.257.575-.574v-.605c1.29-.21 2.027-1.127 2.027-2.532 0-3.337-3.885-2.214-3.885-4.189 0-.983.831-1.19 1.529-1.19 1.021 0 1.327.445 1.638.445.338 0 .507-.385.507-.6 0-.55-1.04-.814-1.816-.87v-.618c0-.317-.258-.574-.575-.574-.317 0-.575.258-.575.574v.69c-1.173.252-1.817 1.034-1.817 2.213 0 2.981 3.885 1.765 3.885 4.19 0 .946-.544 1.446-1.575 1.446z"/>
                        <path fill="#000" fill-rule="nonzero" d="M28.661 10.776h-1.773c-.39 0-.706.316-.706.706 0 .39.317.706.706.706h1.773c.39 0 .706-.316.706-.706 0-.39-.316-.706-.706-.706zM24.77 11.482c0-.39-.316-.706-.705-.706H11.547c-.39 0-.706.316-.706.706 0 .39.316.706.706.706h12.518c.39 0 .706-.316.706-.706zM13.79 14.28h-2.243c-.39 0-.706.316-.706.705 0 .39.317.706.706.706h2.244c.39 0 .706-.315.706-.706 0-.39-.316-.705-.706-.705zM28.661 14.28H16.614c-.39 0-.705.316-.705.705 0 .39.316.706.705.706h12.047c.39 0 .706-.315.706-.706 0-.39-.316-.705-.706-.705zM39.21 42.155c-.39-.024-.724.272-.749.661-.13 2.116-1.895 3.772-4.017 3.772H5.494c-2.22 0-4.026-1.806-4.026-4.025V36.39c0-.39-.315-.705-.706-.705-.39 0-.706.315-.706.706v6.17c0 3 2.44 5.438 5.437 5.438h28.951c2.866 0 5.249-2.239 5.427-5.096.023-.39-.272-.724-.662-.749z"/>
                        <path fill="#A092E7" d="M32.106 6.633l-.002-.002.005.005-.003-.003z"/>
                        <path fill="#000" fill-rule="nonzero" d="M34.638 24.499c-.12-16.185.278-15.926-.37-17.396-.502-1.147-1.142-1.495-3.083-3.614-2.042-2.18-1.926-2.065-2.099-2.238C28.219.417 27.119 0 26.011 0H9.704C7.275 0 5.3 1.976 5.3 4.404V19.06H3.365c-1.823 0-3.308 1.483-3.308 3.308v11.2c0 .39.316.706.706.706.39 0 .706-.316.706-.706v-11.2c0-1.047.85-1.896 1.896-1.896H11.988c1.046 0 1.897.85 1.897 1.896v.511c0 1.67 1.358 3.028 3.028 3.028h17.53c2.211 0 4.026 1.797 4.026 4.025v10.105c0 .39.316.706.706.706.39 0 .706-.317.706-.706V29.932c0-2.933-2.335-5.332-5.243-5.433zM28.35 2.662c2.98 3.15 3.633 3.842 3.75 3.966l-.001-.002.004.004.003.003.003.003.003.004.004.003.003.004-.001-.001.004.004H28.35V2.662zm4.782 21.833h-16.22c-.89 0-1.615-.725-1.615-1.616v-.51c0-1.826-1.484-3.31-3.308-3.31H6.805V4.405c0-1.598 1.301-2.898 2.9-2.898 2.223.005 4.146 0 5.809 0 11.137.002 10.478-.008 11.33 0v5.897c0 .416.337.753.753.753h5.446c.165.644.059.05.089 16.34z"/>
                    </g>
                </g>
            </g>
        </g>
    </g>
</svg>
