<svg xmlns="http://www.w3.org/2000/svg" width="100" height="100" viewBox="0 0 100 100">
    <g fill="none" fill-rule="evenodd">
        <g>
            <g>
                <g>
                    <path fill="#F0EEFA" d="M98.535 50c0 26.805-21.73 48.535-48.535 48.535-26.805 0-48.535-21.73-48.535-48.535C1.465 23.195 23.195 1.465 50 1.465c26.805 0 48.535 21.73 48.535 48.535z" transform="translate(-633.000000, -225.000000) translate(433.000000, 185.000000) translate(200.000000, 40.000000)"/>
                    <path fill="#CFC8F2" d="M46.5 82.798c4.005-3.796 5.78-9.04 5.78-9.04l-6.454-5.48s-7.932-15.237-7.883-15.199C20.235 32.486 33.603 4.565 33.755 4.25 14.94 10.933 1.465 28.894 1.465 50c0 24.98 18.876 45.554 43.142 48.24-3.162-4.79-2.44-11.334 1.893-15.442z" transform="translate(-633.000000, -225.000000) translate(433.000000, 185.000000) translate(200.000000, 40.000000)"/>
                    <path fill="#6D5ED3" d="M47.033 76.089c-1.512 0-3.033-.484-4.314-1.473L19.84 56.967c-3.091-2.384-3.664-6.823-1.279-9.914 2.384-3.09 6.823-3.664 9.914-1.28l17.701 13.655L70.6 32.4c2.616-2.896 7.087-3.123 9.983-.505 2.897 2.617 3.123 7.086.506 9.983L52.28 73.759c-1.389 1.538-3.31 2.33-5.247 2.33z" transform="translate(-633.000000, -225.000000) translate(433.000000, 185.000000) translate(200.000000, 40.000000)"/>
                    <path fill="#000" fill-rule="nonzero" d="M50 100c-13.355 0-25.912-5.201-35.355-14.645C5.2 75.912 0 63.355 0 50c0-11.378 3.724-22.099 10.769-31.002.502-.634 1.423-.742 2.058-.24.634.502.741 1.423.24 2.058C6.434 29.196 2.93 39.288 2.93 50c0 12.573 4.895 24.393 13.786 33.284C25.606 92.174 37.426 97.07 50 97.07c12.573 0 24.393-4.895 33.284-13.786C92.174 74.394 97.07 62.574 97.07 50c0-12.573-4.895-24.393-13.786-33.284C74.394 7.826 62.574 2.93 50 2.93c-12.386 0-24.08 4.771-32.928 13.434-.577.566-1.505.556-2.071-.022-.566-.578-.556-1.505.021-2.071C24.422 5.068 36.844 0 50 0c13.355 0 25.912 5.201 35.355 14.645C94.8 24.088 100 36.645 100 50c0 13.355-5.201 25.912-14.645 35.355C75.912 94.8 63.355 100 50 100z" transform="translate(-633.000000, -225.000000) translate(433.000000, 185.000000) translate(200.000000, 40.000000)"/>
                    <path fill="#000" fill-rule="nonzero" d="M47.034 77.554c-1.902 0-3.703-.615-5.21-1.777l-22.88-17.65c-1.804-1.392-2.959-3.404-3.25-5.664-.293-2.26.314-4.5 1.706-6.304 1.392-1.805 3.404-2.96 5.664-3.251 2.261-.292 4.5.314 6.305 1.706l16.628 12.828 23.515-26.024c1.528-1.692 3.623-2.686 5.9-2.802 2.276-.115 4.46.663 6.152 2.19 1.692 1.529 2.687 3.625 2.802 5.901.115 2.276-.663 4.461-2.191 6.153l-3.904 4.32c-.542.6-1.468.646-2.069.104-.6-.543-.647-1.469-.104-2.068L80 40.896c2.071-2.293 1.907-5.86-.401-7.915-3.268-2.911-6.91-.71-7.914.4l-24.423 27.03c-.513.568-1.376.645-1.982.178L27.58 46.934c-1.184-.914-5.37-2.282-7.86 1.014-2.488 3.296-.17 6.945 1.015 7.86l22.88 17.649c.989.763 2.172 1.166 3.42 1.166 1.583 0 3.1-.673 4.16-1.846l20.867-23.094c.543-.6 1.469-.647 2.07-.105.599.542.646 1.469.104 2.068L53.368 74.741c-1.616 1.787-3.924 2.813-6.334 2.813z" transform="translate(-633.000000, -225.000000) translate(433.000000, 185.000000) translate(200.000000, 40.000000)"/>
                </g>
            </g>
        </g>
    </g>
</svg>
