<svg xmlns="http://www.w3.org/2000/svg" width="24" height="24" viewBox="0 0 24 24">
    <g fill="none" fill-rule="evenodd">
        <g>
            <g>
                <g>
                    <path d="M0 0L24 0 24 24 0 24z" transform="translate(-997.000000, -223.000000) translate(981.000000, 75.000000) translate(16.000000, 148.000000)"/>
                    <g fill="#24262A" fill-rule="nonzero" stroke="#FFF" stroke-width=".3">
                        <path d="M13.464 1.539h-1.901V.781c0-.431-.35-.781-.782-.781H4.635c-.431 0-.78.35-.78.781v.758H1.952C.876 1.539 0 2.415 0 3.492v14.555C0 19.124.876 20 1.953 20h11.51c1.078 0 1.954-.876 1.954-1.953V3.492c0-1.077-.876-1.953-1.953-1.953h0zM10 1.563v1.515H5.416V1.563H10zm3.855 16.484c0 .215-.176.39-.391.39H1.954c-.216 0-.391-.175-.391-.39V3.492c0-.215.175-.39.39-.39h1.9v.757c0 .432.35.782.782.782h6.146c.432 0 .782-.35.782-.782v-.757h1.9c.216 0 .392.175.392.39v14.555zm-2.521-8.925c.305.305.305.8 0 1.105l-4.106 4.105c-.305.305-.8.305-1.105 0l-2.04-2.04c-.305-.305-.305-.8 0-1.105.305-.305.8-.305 1.105 0l1.488 1.488 3.553-3.553c.305-.305.8-.305 1.105 0z" transform="translate(-997.000000, -223.000000) translate(981.000000, 75.000000) translate(16.000000, 148.000000) translate(4.000000, 2.000000)"/>
                    </g>
                </g>
            </g>
        </g>
    </g>
</svg>
