<svg width="66" height="30" fill="none" xmlns="http://www.w3.org/2000/svg">
    <g clip-path="url(#a)">
        <path d="M39.306 13.047h-1.633a3.155 3.155 0 0 1-.075-.465 5.335 5.335 0 0 1 0-1.03c.016-.175.041-.33.075-.464h4.069v12.884c-.204.036-.41.06-.615.075a8.55 8.55 0 0 1-.616.025 8.173 8.173 0 0 1-.59-.025 6.053 6.053 0 0 1-.615-.075V13.046zm14.165 3.24c0-.47-.063-.917-.188-1.344-.126-.427-.31-.8-.553-1.118a2.693 2.693 0 0 0-.93-.765c-.376-.193-.824-.29-1.343-.29-1.022 0-1.804.31-2.349.93-.544.62-.874 1.482-.992 2.587h6.355zm-6.38 1.858c.034 1.407.398 2.437 1.093 3.09.695.652 1.72.98 3.077.98 1.188 0 2.318-.21 3.39-.629.134.251.242.557.326.917.082.35.133.708.15 1.067-.551.235-1.159.41-1.82.528-.662.117-1.394.176-2.197.176-1.173 0-2.178-.164-3.014-.49-.838-.327-1.528-.788-2.072-1.382a5.472 5.472 0 0 1-1.194-2.11c-.25-.811-.376-1.703-.376-2.674 0-.955.12-1.846.364-2.675a6.027 6.027 0 0 1 1.117-2.16 5.4 5.4 0 0 1 1.897-1.457c.761-.36 1.661-.54 2.7-.54.887 0 1.666.15 2.336.452.669.302 1.23.716 1.682 1.243a5.401 5.401 0 0 1 1.03 1.884c.234.729.352 1.52.352 2.374 0 .234-.01.48-.026.74-.014.222-.03.444-.05.666h-8.765zm11.58-7.057a5.437 5.437 0 0 1 1.055-.1c.184 0 .368.008.552.024.184.018.352.043.503.076.05.25.1.582.15.992.05.41.076.757.076 1.042A5.204 5.204 0 0 1 62.4 11.64c.578-.418 1.319-.628 2.223-.628.134 0 .272.005.414.013a3.7 3.7 0 0 1 .364.037c.034.151.06.31.076.478a5.378 5.378 0 0 1-.013 1.155c-.024.21-.053.419-.088.627a1.73 1.73 0 0 0-.414-.05h-.34a4.4 4.4 0 0 0-1.293.188c-.41.126-.779.348-1.105.666-.326.318-.586.754-.778 1.306-.193.553-.29 1.265-.29 2.135v6.405a6.09 6.09 0 0 1-.615.075 8.344 8.344 0 0 1-.615.025 8.428 8.428 0 0 1-1.256-.1V11.088zm-17.627-6.88c0 .3-.055.599-.16.88a2.5 2.5 0 0 1-.88.16h-.005c-.3 0-.599-.054-.88-.16a2.493 2.493 0 0 1-.16-.88v-.004c0-.31.056-.607.16-.88.28-.107.58-.161.88-.16h.003c.31 0 .607.056.88.16.107.28.161.579.161.88v.004zm3.069-.697h-2.434l1.72-1.72a4.188 4.188 0 0 0-.982-.983l-1.721 1.72V.095a4.19 4.19 0 0 0-.692-.058h-.005c-.236 0-.467.02-.693.058v2.433l-1.72-1.72a4.202 4.202 0 0 0-.983.983l1.721 1.72H35.89s-.058.457-.058.693v.003c0 .237.02.468.058.694h2.434l-1.721 1.72c.27.38.603.712.983.983l1.72-1.72v2.433c.226.038.456.058.692.058h.006c.232 0 .463-.02.692-.058V5.883l1.721 1.721a4.204 4.204 0 0 0 .982-.982L41.68 4.9h2.434c.037-.226.057-.456.057-.692v-.006c0-.232-.019-.463-.057-.692zM0 23.62l6.781-10.55H.804a6.155 6.155 0 0 1-.075-1.004c0-.351.025-.678.075-.98h9.67l.125.328-6.831 10.573h6.404c.05.335.076.678.076 1.03 0 .335-.026.653-.076.954H.126L0 23.62zm19.565-5.702a23.05 23.05 0 0 0-.954-.1c-.386-.033-.712-.05-.98-.05-1.038 0-1.829.192-2.373.577-.544.386-.816.972-.816 1.759 0 .502.092.895.276 1.18a1.9 1.9 0 0 0 .69.653c.277.15.582.243.917.276.335.034.653.05.954.05.386 0 .783-.02 1.194-.063.41-.041.774-.104 1.092-.188V17.92zm0-2.436c0-.988-.251-1.675-.753-2.06-.503-.385-1.231-.577-2.185-.577-.587 0-1.135.046-1.645.138-.506.09-1.005.212-1.495.364-.319-.553-.477-1.214-.477-1.985a11.567 11.567 0 0 1 1.883-.426c.687-.1 1.348-.151 1.984-.151 1.675 0 2.947.381 3.818 1.143.87.762 1.306 1.98 1.306 3.654v8.063c-.586.134-1.298.272-2.135.414-.846.143-1.703.214-2.562.214-.82 0-1.561-.076-2.222-.226-.662-.151-1.223-.393-1.683-.729a3.375 3.375 0 0 1-1.068-1.28c-.25-.52-.377-1.147-.377-1.884 0-.72.147-1.352.44-1.897a3.96 3.96 0 0 1 1.193-1.356 5.32 5.32 0 0 1 1.733-.803 7.886 7.886 0 0 1 2.06-.264c.535 0 .975.013 1.318.038.343.025.632.054.867.088v-.478zm7.635 6.38c.317.116.645.2.98.25.334.05.77.076 1.306.076.602 0 1.155-.096 1.657-.289.502-.192.933-.49 1.293-.891.36-.402.645-.908.854-1.52.21-.61.315-1.335.315-2.172 0-1.34-.248-2.403-.741-3.19-.495-.787-1.303-1.18-2.424-1.18-.419 0-.82.075-1.205.226-.386.15-.729.376-1.03.678a3.35 3.35 0 0 0-.728 1.142c-.185.461-.277 1.01-.277 1.646v5.224zm-2.487-10.776a5.256 5.256 0 0 1 1.055-.1c.167 0 .343.009.528.025.184.017.36.043.527.075.017.035.038.139.063.315s.05.364.075.565c.025.2.05.394.076.577.025.185.037.302.037.352.167-.268.368-.527.603-.778.234-.252.515-.478.842-.678a4.4 4.4 0 0 1 1.105-.478c.41-.117.866-.176 1.368-.176.754 0 1.453.126 2.098.377.644.252 1.196.64 1.657 1.168.46.527.82 1.197 1.08 2.01.26.812.389 1.77.389 2.875 0 2.21-.599 3.94-1.796 5.187-1.198 1.247-2.892 1.87-5.086 1.87-.368 0-.745-.024-1.13-.075a6.71 6.71 0 0 1-1.005-.2V29.9a8.6 8.6 0 0 1-1.256.1c-.205 0-.41-.01-.615-.025a6.052 6.052 0 0 1-.615-.075V11.088z" fill="#FF4A00"/>
    </g>
    <defs>
        <clipPath id="a">
            <path fill="#fff" d="M0 0h65.502v30H0z"/>
        </clipPath>
    </defs>
</svg>
